<?xml version="1.0" encoding="utf-8"?>
<!-- Generator: Adobe Illustrator 23.0.0, SVG Export Plug-In . SVG Version: 6.00 Build 0)  -->
<svg version="1.1" id="Layer_1" xmlns="http://www.w3.org/2000/svg" xmlns:xlink="http://www.w3.org/1999/xlink" x="0px" y="0px"
	 viewBox="0 0 783 68.2" style="enable-background:new 0 0 783 68.2;" xml:space="preserve">
<style type="text/css">
	.st0{fill:#B1AEAE;}
</style>
<path class="st0" d="M21.65,61.54c0,3.02,0.88,3.61,2.83,4.1l3.02,0.68v1.36H7.41v-1.36l2.54-0.58c1.95-0.49,2.83-1.46,2.83-4.19
	V2.44h-2.15c-6.05,0-8.48,9.85-9.17,20.29H0V0.49h34.43v22.24h-1.46C32.28,12.29,29.84,2.44,23.8,2.44h-2.15V61.54z M36.58,66.32
	l2.15-0.59c1.95-0.49,2.83-1.46,2.83-4.19V6.53c0-2.73-0.88-3.61-2.83-4.1l-2.15-0.59V0.49h19.02v1.37l-2.24,0.58
	c-1.85,0.49-2.93,1.27-2.93,4v25.65h14.73V6.44c0-2.73-1.07-3.51-2.93-4l-2.24-0.59V0.49H79v1.37l-2.15,0.58
	c-1.95,0.49-2.83,1.37-2.83,4.1v54.91c0,2.73,0.88,3.81,2.83,4.29L79,66.32v1.36H59.98v-1.36l2.24-0.49
	c1.85-0.49,2.93-1.56,2.93-4.29V34.33H50.42v27.21c0,2.73,1.07,3.8,2.93,4.29l2.24,0.49v1.36H36.58V66.32z M95,65.74h6.73
	c8.78,0,10.44-9.95,11.61-20.29h1.46v22.24H81.15v-1.36l2.15-0.58c1.95-0.49,2.83-1.46,2.83-4.19V6.63c0-2.73-0.88-3.71-2.83-4.19
	l-2.15-0.59V0.49h32.67v22.24h-1.46c-1.07-10.44-3.12-20.29-10.63-20.29H95V31.8l3.12-0.1c4.19-0.29,5.75-3.9,6.83-12.39h1.46v27.11
	h-1.46c-0.88-10.63-2.54-12.29-6.93-12.58L95,33.74C95,33.74,95,65.74,95,65.74z M135.65,9.46c-1.27-5.75-2.05-6.63-3.9-7.12
	l-1.85-0.49V0.49h18.24v1.37l-1.46,0.29c-3.12,0.68-2.83,3.8-1.95,8l7.71,38.23l5.66-30.43l-2.05-10.44
	c-0.78-3.71-1.07-4.88-3.02-5.36l-1.27-0.29V0.49h17.85v1.37l-2.15,0.39c-3.22,0.59-2.73,4.1-1.95,7.9l7.41,38.24l7.32-36.19
	c1.37-7.51,0.68-9.36-2.24-9.95l-2.05-0.39V0.49h13.36v1.37l-1.85,0.49c-2.34,0.59-2.93,2.44-4.29,8.97l-11.9,56.76h-2.54
	l-9.17-44.28l-8.29,44.28h-3.22C148.04,68.08,135.65,9.46,135.65,9.46z M231.04,65.74h3.9c8.29,0,10.73-9.85,11.7-20.29h1.46v22.24
	h-49.84v-1.36l2.05-0.39c4.19-0.78,4.19-1.95,3.12-7.8l-1.85-8.78h-12l-1.27,6.64c-1.46,7.51-0.68,9.36,2.24,9.95l2.05,0.39v1.36
	h-13.56v-1.36l1.66-0.49c2.63-0.78,3.32-2.34,4.68-8.97l11.9-56.77h2.93l12.48,58.62c1.27,6.05,1.85,7.31,5.36,7.31
	c3.02,0,4.1-1.56,4.1-4.48V6.53c0-2.73-0.88-3.61-2.83-4.1l-2.15-0.59V0.49h19.31v1.46l-2.63,0.59c-1.95,0.39-2.83,1.27-2.83,4
	L231.04,65.74L231.04,65.74z M189.98,47.11h11.12l-5.66-27.7L189.98,47.11L189.98,47.11z M264.1,65.74h3.9
	c8.29,0,10.73-9.85,11.7-20.29h1.46v22.24h-30.92v-1.36l2.15-0.58c1.95-0.49,2.83-1.46,2.83-4.19V6.53c0-2.73-0.88-3.61-2.83-4.1
	l-2.15-0.59V0.49h19.31v1.46l-2.63,0.59c-1.95,0.39-2.83,1.27-2.83,4L264.1,65.74L264.1,65.74z M312.98,68.08
	c-5.66,0-7.61-3.9-9.46-3.9c-1.07,0-2.34,0.29-3.32,3.51h-1.17V45.45h1.46c1.17,12.58,5.85,20.48,12.39,20.48
	c4.39,0,7.41-4,7.41-11.22c0-15.22-21.75-21.75-21.75-38.62c0-9.07,4.68-16,12.97-16c5.36,0,6.54,3.51,8.78,3.51
	c1.27,0,2.15-0.98,2.63-3.12h1.17v22.24h-1.46c-1.17-11.22-4.19-20.48-11.22-20.48c-4.88,0-5.85,4.88-5.85,8.19
	c0,14.53,21.75,19.51,21.75,39.79C327.31,60.57,321.66,68.08,312.98,68.08z M348.87,61.54c0,2.73,0.88,3.71,2.83,4.19l2.54,0.59
	v1.36h-19.6v-1.36l2.54-0.59c1.95-0.49,2.83-1.46,2.83-4.19V2.44h-2.15c-6.05,0-8.48,9.85-9.17,20.29h-1.46V0.49h34.43v22.24h-1.46
	c-0.68-10.44-3.12-20.29-9.17-20.29h-2.15L348.87,61.54L348.87,61.54L348.87,61.54z M363.79,66.32l2.15-0.59
	c1.95-0.49,2.83-1.46,2.83-4.19V6.53c0-2.73-0.88-3.61-2.83-4.1l-2.15-0.59V0.49h18.63c8.29,0,16,5.27,16,16.29
	c0,8.49-4,14.44-12.1,16.58c8.88,1.66,8.88,5.85,9.75,17.07l0.58,8.58c0.29,4.78,0.49,5.85,1.85,5.85c1.46,0,2.05-3.31,2.05-6.53
	v-1.66h1.66v2.24c0,5.37-1.17,9.17-6.73,9.17c-5.46,0-8-3.12-8.39-14.34l-0.49-12.48c-0.2-5.95-1.66-6.83-4.49-6.83h-4.58v27.12
	c0,2.73,0.88,3.8,2.83,4.29l2.15,0.49v1.36h-18.73L363.79,66.32L363.79,66.32z M377.54,32.48h3.22c5.46,0,8.19-1.46,8.19-14.44
	s-3.61-15.6-7.51-15.6h-3.9L377.54,32.48L377.54,32.48z M416.65,65.74h6.73c8.78,0,10.44-9.95,11.61-20.29h1.46v22.24H402.8v-1.36
	l2.15-0.58c1.95-0.49,2.83-1.46,2.83-4.19V6.63c0-2.73-0.88-3.71-2.83-4.19l-2.15-0.59V0.49h32.67v22.24h-1.46
	c-1.07-10.44-3.12-20.29-10.63-20.29h-6.73V31.8l3.12-0.1c4.19-0.29,5.76-3.9,6.83-12.39h1.46v27.11h-1.46
	c-0.88-10.63-2.54-12.29-6.93-12.58l-3.02-0.1C416.65,33.74,416.65,65.74,416.65,65.74z M452.84,65.74h6.73
	c8.77,0,10.44-9.95,11.6-20.29h1.46v22.24h-33.65v-1.36l2.15-0.58c1.95-0.49,2.83-1.46,2.83-4.19V6.63c0-2.73-0.88-3.71-2.83-4.19
	l-2.15-0.59V0.49h32.67v22.24h-1.46c-1.07-10.44-3.12-20.29-10.63-20.29h-6.73V31.8l3.12-0.1c4.19-0.29,5.75-3.9,6.83-12.39h1.46
	v27.11h-1.46c-0.88-10.63-2.54-12.29-6.92-12.58l-3.02-0.1L452.84,65.74L452.84,65.74z M496.44,61.54c0,3.02,0.88,3.61,2.83,4.1
	l3.02,0.68v1.36H482.2v-1.36l2.54-0.58c1.95-0.49,2.83-1.46,2.83-4.19V2.44h-2.15c-6.05,0-8.48,9.85-9.17,20.29h-1.46V0.49h34.43
	v22.24h-1.46c-0.68-10.44-3.12-20.29-9.17-20.29h-2.15V61.54z M549.99,52.18c0,10.44-5.27,15.9-13.36,15.9
	c-7.31,0-11.6-5.95-11.51-12.48c0.1-5.07,3.8-7.61,6.83-7.22c2.15,0.29,4.29,1.85,4,5.27c-0.29,4.88-5.56,4.68-5.76,7.71
	c-0.19,1.85,2.24,4.58,5.36,4.58c5.46,0,5.46-6.92,5.46-12.19V6.44c0-2.73-0.88-3.51-3.02-4l-2.44-0.59V0.49h19.22v1.37l-2.15,0.58
	c-1.95,0.49-2.63,1.37-2.63,4.1L549.99,52.18L549.99,52.18z M572.72,68.18c-11.41,0-16.97-15.41-16.97-34.14
	c0-18.63,5.36-34.04,16.97-34.04c11.51,0,17.07,15.41,17.07,34.04C589.78,52.77,584.52,68.18,572.72,68.18L572.72,68.18z
	 M572.72,2.24c-4.88,0-7.31,3.9-7.31,31.41c0,28.38,2.24,32.38,7.31,32.38c5.07,0,7.41-4,7.41-32.58
	C580.13,6.15,577.79,2.24,572.72,2.24z M628.41,66.32l2.15-0.59c1.95-0.49,2.83-1.46,2.83-4.19V6.53c0-3.22-1.46-4.39-4.88-4.39
	c-4.29,0-5.36,1.95-5.36,7.51v42.33c0,10.53-3.71,16.19-12.78,16.19c-9.36,0-14.82-5.66-14.82-15.9V6.53c0-2.73-0.68-3.61-2.63-4.1
	l-2.15-0.59V0.49h19.41v1.37l-2.63,0.58c-2.15,0.49-3.02,1.27-3.02,4v46.52c0,9.46,2.73,11.9,7.71,11.9c5.85,0,8.29-3.32,8.29-12.88
	V13.17c0-8.19-0.1-10.14-3.61-10.92l-1.85-0.39V0.49h31.99c8.29,0,15.99,5.27,15.99,16.29c0,8.49-4,14.44-12.09,16.58
	c8.88,1.66,8.88,5.85,9.75,17.07l0.59,8.58c0.29,4.78,0.49,5.85,1.85,5.85c1.46,0,2.05-3.31,2.05-6.53v-1.66h1.66v2.24
	c0,5.37-1.17,9.17-6.73,9.17c-5.46,0-8-3.12-8.39-14.34l-0.49-12.48c-0.2-5.95-1.66-6.83-4.49-6.83h-4.58v27.12
	c0,2.73,0.88,3.8,2.83,4.29l2.15,0.49v1.36h-18.73L628.41,66.32L628.41,66.32L628.41,66.32z M642.16,32.48h3.22
	c5.46,0,8.19-1.46,8.19-14.44s-3.61-15.6-7.51-15.6h-3.9V32.48z M668.59,2.24l-1.36-0.39V0.49H680l17.46,44.28V12.87
	c0-7.22,0.19-9.75-4.97-10.63l-1.66-0.39V0.49h14.43v1.37l-1.36,0.39c-4.19,0.97-3.9,4.39-3.9,11.22v54.23h-3.12l-21.85-53.74V55.3
	c0,7.9,0,10.15,6.24,11.02v1.36h-14.05v-1.36l1.76-0.29c3.61-0.68,3.51-4.19,3.51-11.31V8.1C670.84,4.68,670.15,2.83,668.59,2.24z
	 M754.42,65.74h3.9c8.29,0,10.73-9.85,11.7-20.29h1.46v22.24h-49.74v-1.36l2.05-0.39c4.19-0.78,4.29-1.95,3.12-7.8l-1.85-8.78
	h-11.99l-1.27,6.64c-1.46,7.51-0.68,9.36,2.24,9.95l2.05,0.39v1.36h-13.56v-1.36l1.66-0.49c2.64-0.78,3.32-2.34,4.68-8.97
	l11.9-56.76h2.93l12.48,58.62c1.27,6.05,1.76,7.31,5.27,7.31c3.02,0,4.1-1.56,4.1-4.48V6.53c0-2.73-0.88-3.61-2.83-4.1l-2.15-0.59
	V0.49h19.31v1.46l-2.63,0.59c-1.95,0.39-2.83,1.27-2.83,4L754.42,65.74L754.42,65.74z M713.46,47.11h11.12l-5.66-27.7L713.46,47.11z
	 M783,63.4c0,2.63-1.95,4.59-4.29,4.59s-4.29-1.95-4.29-4.58c0-2.63,1.95-4.58,4.29-4.58S783,60.76,783,63.4z"/>
</svg>
