<?xml version="1.0" encoding="utf-8"?>
<!-- Generator: Adobe Illustrator 18.0.0, SVG Export Plug-In . SVG Version: 6.00 Build 0)  -->
<!DOCTYPE svg PUBLIC "-//W3C//DTD SVG 1.1//EN" "http://www.w3.org/Graphics/SVG/1.1/DTD/svg11.dtd">
<svg version="1.1" id="Layer_1" xmlns="http://www.w3.org/2000/svg" xmlns:xlink="http://www.w3.org/1999/xlink" x="0px" y="0px"
	 width="64px" height="64px" viewBox="0 0 64 64" enable-background="new 0 0 64 64" xml:space="preserve">
<g>
	<g>
		<path fill="#1c1c1c" d="M37.4,20.8L36,22.2c2.5,2.5,4,6,4,9.8s-1.5,7.3-4,9.8l1.4,1.4C40.2,40.3,42,36.4,42,32
			C42,27.6,40.2,23.7,37.4,20.8z"/>
		<path fill="#1c1c1c" d="M41.6,16.5L40.2,18c3.6,3.6,5.8,8.6,5.8,14s-2.2,10.4-5.8,14l1.4,1.4C45.6,43.5,48,38,48,32
			C48,26,45.6,20.5,41.6,16.5z"/>
	</g>
	<polygon fill="#1c1c1c" points="32,20 26,26 16,26 16,38 26,38 32,44 	"/>
</g>
</svg>
