<?xml version="1.0" encoding="utf-8"?>
<!-- Generator: Adobe Illustrator 18.0.0, SVG Export Plug-In . SVG Version: 6.00 Build 0)  -->
<!DOCTYPE svg PUBLIC "-//W3C//DTD SVG 1.1//EN" "http://www.w3.org/Graphics/SVG/1.1/DTD/svg11.dtd">
<svg version="1.1" id="Layer_1" xmlns="http://www.w3.org/2000/svg" xmlns:xlink="http://www.w3.org/1999/xlink" x="0px" y="0px"
	 width="63.8px" height="63.8px" viewBox="0 0 63.8 63.8" enable-background="new 0 0 63.8 63.8" xml:space="preserve">
<g>
	<g id="PLAYLISTER_1_">
		<path fill="#FFFFFF" d="M25.3,15.4V20c0,0,4.9,0,6.2,0c1.3,0,3.7,0.2,5.1,0.9c2,1.1,3,2.9,3,5.4s-1,4.4-3,5.4
			c-1.7,0.8-3.4,0.9-3.4,0.9v4.6c4.4,0,11-3,11-11c0-7.9-4.8-11-12.7-11C30.6,15.4,25.3,15.4,25.3,15.4z"/>
		<path fill="#FFFFFF" d="M33.8,24.2L33.8,24.2h-8.5v16.4c-0.5,0-1.2,0.1-1.7,0.4c-2.8,0.8-4.4,3.3-3.7,5.6c0.6,2.2,3.5,3.3,6.2,2.5
			c2.6-0.8,3.8-3,3.8-5.4V28.9c0,0,3.8,0,3.9,0c1.3,0,2.2-1.1,2.2-2.2C36.1,25.3,35,24.2,33.8,24.2z"/>
	</g>
</g>
</svg>
