<?xml version="1.0" encoding="utf-8"?>
<!-- Generator: Adobe Illustrator 18.0.0, SVG Export Plug-In . SVG Version: 6.00 Build 0)  -->
<!DOCTYPE svg PUBLIC "-//W3C//DTD SVG 1.1//EN" "http://www.w3.org/Graphics/SVG/1.1/DTD/svg11.dtd">
<svg version="1.1" id="Layer_1" xmlns="http://www.w3.org/2000/svg" xmlns:xlink="http://www.w3.org/1999/xlink" x="0px" y="0px"
	 width="64px" height="64px" viewBox="0 0 64 64" enable-background="new 0 0 64 64" xml:space="preserve">
<g>
	<g>
		<g id="pulse64_4_" display="none">
			<path display="inline" fill="#1c1c1c" d="M39.5,20.5L38,22c2.6,2.6,4.2,6.2,4.2,10.1c0,3.9-1.6,7.5-4.2,10.1l1.5,1.5
				c2.9-3,4.8-7.1,4.8-11.6C44.2,27.6,42.4,23.5,39.5,20.5z"/>
			<path display="inline" fill="#1c1c1c" d="M43.9,16.2l-1.5,1.5c3.7,3.7,6,8.9,6,14.5c0,5.7-2.3,10.8-6,14.5l1.5,1.5
				c4.1-4.1,6.6-9.8,6.6-16C50.5,25.9,47.9,20.3,43.9,16.2z"/>
		</g>
		<g id="pulse25_4_">
			<g>
				<path fill="#1c1c1c" d="M39,20.6l-1.9,1.9c5,5.5,5,13.9,0,19.4l1.9,1.9C45,37.2,45,27.1,39,20.6z"/>
				<path fill="#1c1c1c" d="M44.6,14.9l-1.9,1.9c8.1,8.6,8.1,22.1,0,30.7l1.9,1.9C53.7,39.7,53.7,24.6,44.6,14.9z"/>
			</g>
		</g>
		<polygon id="ip25_x5F_custom2_3_" fill="#1c1c1c" points="20.2,17.5 13.5,17.5 13.5,24.3 20.2,24.3 20.2,21.4 31.9,32.2 
			20.2,42.9 20.2,28.8 13.5,28.8 13.5,46.8 20.2,46.8 36,32.2 		"/>
	</g>
</g>
</svg>
