<?xml version="1.0" encoding="utf-8"?>
<!-- Generator: Adobe Illustrator 18.0.0, SVG Export Plug-In . SVG Version: 6.00 Build 0)  -->
<!DOCTYPE svg PUBLIC "-//W3C//DTD SVG 1.1//EN" "http://www.w3.org/Graphics/SVG/1.1/DTD/svg11.dtd">
<svg version="1.1" id="Layer_1" xmlns="http://www.w3.org/2000/svg" xmlns:xlink="http://www.w3.org/1999/xlink" x="0px" y="0px"
	 width="64px" height="64px" viewBox="0 0 64 64" enable-background="new 0 0 64 64" xml:space="preserve">
<g>
	<g>
		<path fill="#1c1c1c" d="M43.3,27.2c0,6.3-5.1,11.3-11.3,11.3c-1,0-2-0.1-3-0.4l1.5-5.6c0.5,0.1,0.9,0.2,1.5,0.2
			c3.1,0,5.5-2.5,5.5-5.5c0-3.1-2.5-5.5-5.5-5.5c-3.1,0-5.5,2.5-5.5,5.5c0,0.5,0.1,0.9,0.2,1.4L21,30.1c-0.2-0.9-0.4-1.9-0.4-2.9
			c0-6.3,5.1-11.3,11.3-11.3C38.3,15.9,43.3,21,43.3,27.2z M30,41.3c1.8,0,3.3,1.5,3.3,3.3c0,1.8-1.5,3.3-3.3,3.3
			c-1.8,0-3.3-1.5-3.3-3.3C26.7,42.8,28.2,41.3,30,41.3z"/>
	</g>
</g>
</svg>
