<?xml version="1.0" encoding="utf-8"?>
<!-- Generator: Adobe Illustrator 18.0.0, SVG Export Plug-In . SVG Version: 6.00 Build 0)  -->
<!DOCTYPE svg PUBLIC "-//W3C//DTD SVG 1.1//EN" "http://www.w3.org/Graphics/SVG/1.1/DTD/svg11.dtd">
<svg version="1.1" id="Layer_1" xmlns="http://www.w3.org/2000/svg" xmlns:xlink="http://www.w3.org/1999/xlink" x="0px" y="0px"
	 width="64px" height="64px" viewBox="0 0 64 64" enable-background="new 0 0 64 64" xml:space="preserve">
<g>
	<path fill="#FFFFFF" d="M24,23.5c-1.9,0-3.5,1.6-3.5,3.5s1.6,3.5,3.5,3.5s3.5-1.6,3.5-3.5S25.9,23.5,24,23.5z"/>
	<path fill="#FFFFFF" d="M40,19c-2,0-3.9,0.8-5.3,2h-5.4c-1.4-1.2-3.3-2-5.3-2c-4.4,0-8,3.6-8,8v18h6l6.4-10h7.1L42,45h6V27
		C48,22.6,44.4,19,40,19z M40,21c1.1,0,2,0.9,2,2s-0.9,2-2,2s-2-0.9-2-2S38.9,21,40,21z M24,33c-3.3,0-6-2.7-6-6c0-3.3,2.7-6,6-6
		c3.3,0,6,2.7,6,6C30,30.3,27.3,33,24,33z M36,29c-1.1,0-2-0.9-2-2s0.9-2,2-2s2,0.9,2,2S37.1,29,36,29z M40,33c-1.1,0-2-0.9-2-2
		s0.9-2,2-2s2,0.9,2,2S41.1,33,40,33z M44,29c-1.1,0-2-0.9-2-2s0.9-2,2-2s2,0.9,2,2S45.1,29,44,29z"/>
</g>
</svg>
