<?xml version="1.0" encoding="utf-8"?>
<!-- Generator: Adobe Illustrator 23.0.0, SVG Export Plug-In . SVG Version: 6.00 Build 0)  -->
<svg version="1.1" id="Layer_1" xmlns="http://www.w3.org/2000/svg" xmlns:xlink="http://www.w3.org/1999/xlink" x="0px" y="0px"
	 viewBox="0 0 45 45" style="enable-background:new 0 0 45 45;" xml:space="preserve">
<path d="M22.1,28.79c1.25,0,2.19-0.74,2.82-2.22c0.63-1.48,0.95-3.87,0.95-7.18c0-3.31-0.32-5.69-0.95-7.16
	c-0.63-1.47-1.57-2.21-2.82-2.21c-1.25,0-2.19,0.74-2.82,2.21c-0.63,1.47-0.95,3.86-0.95,7.16c0,3.31,0.32,5.7,0.95,7.18
	S20.86,28.79,22.1,28.79z M5,5v35h35V5H5z M31.23,32.95c-1,1.7-2.46,2.55-4.36,2.55c-1.13,0-2.48-0.23-4.05-0.69l-5.69-1.64
	c-0.85-0.26-1.55-0.38-2.1-0.38c-0.49,0-0.81,0.01-0.96,0.03l-0.03-0.05l4.5-3.92c-1.95-0.57-3.44-1.65-4.48-3.25
	c-1.04-1.6-1.56-3.66-1.56-6.18c0-3.23,0.84-5.69,2.52-7.38c1.68-1.69,4.04-2.53,7.08-2.53c3.04,0,5.4,0.84,7.08,2.53
	c1.68,1.69,2.52,4.15,2.52,7.38c0,3.21-0.84,5.67-2.52,7.36c-1.68,1.69-4.04,2.53-7.08,2.53c-1.08,0-2.07-0.11-2.97-0.33l-0.99,0.85
	l6.35,1.64c1.38,0.36,2.64,0.55,3.8,0.55c1,0,1.97-0.23,2.92-0.69l1.25-0.6l0.06,0.03L31.23,32.95z"/>
</svg>
