<?xml version="1.0" encoding="utf-8"?>
<!-- Generator: Adobe Illustrator 23.0.0, SVG Export Plug-In . SVG Version: 6.00 Build 0)  -->
<svg version="1.1" id="Layer_1" xmlns="http://www.w3.org/2000/svg" xmlns:xlink="http://www.w3.org/1999/xlink" x="0px" y="0px"
	 viewBox="0 0 45 45" style="enable-background:new 0 0 45 45;" xml:space="preserve">
<path d="M21.15,9.27c-5.37,0-7.69,3.83-7.69,11.29c0,7.42,2.32,11.21,7.69,11.21c0.85,0,1.63-0.09,2.34-0.3
	c-1.11-2.18-2.41-4.39-4.95-4.39c-0.49,0-0.97,0.08-1.42,0.28l-0.86-1.73c1.05-0.9,2.75-1.62,4.94-1.62c3.4,0,5.14,1.64,6.53,3.73
	c0.82-1.78,1.21-4.19,1.21-7.18C28.92,13.1,26.59,9.27,21.15,9.27z M0,0v45h45V0H0z M31.62,38.52c-3.54,0-5.41-2.05-6.81-4.45
	c-1.18,0.32-2.43,0.49-3.67,0.49C14,34.56,7,28.85,7,20.56c0-8.37,7-14.08,14.15-14.08c7.27,0,14.2,5.66,14.2,14.08
	c0,4.68-2.18,8.48-5.36,10.94c1.03,1.54,2.08,2.56,3.55,2.56c1.6,0,2.25-1.24,2.36-2.21h2.09C38.11,33.14,37.46,38.52,31.62,38.52z"
	/>
</svg>
