<svg version="1.1" id="Layer_1" xmlns="http://www.w3.org/2000/svg" xmlns:xlink="http://www.w3.org/1999/xlink" x="0px" y="0px" viewBox="0 0 32 31" enable-background="new 0 0 32 31" xml:space="preserve"><g><g><path fill="#1E1E1E" d="M21.4,4.3L20,5.7c2.5,2.5,4,6,4,9.8s-1.5,7.3-4,9.8l1.4,1.4c2.8-2.9,4.6-6.9,4.6-11.2 C26,11.1,24.2,7.1,21.4,4.3z"/><path fill="#1E1E1E" d="M25.6,0l-1.4,1.4C27.8,5.1,30,10,30,15.5s-2.2,10.4-5.8,14.1l1.4,1.4c3.9-4,6.4-9.5,6.4-15.5 C32,9.5,29.6,4,25.6,0z"/></g><polygon fill="#1E1E1E" points="16,3.5 10,9.5 0,9.5 0,21.5 10,21.5 16,27.5 "/></g></svg>