<svg width="0" height="0" class="hidden">
  <symbol xmlns="http://www.w3.org/2000/svg" viewBox="0 0 18 18" id="plyr-logo-youtube">
    <path d="M16.8 5.8c-.2-1.3-.8-2.2-2.2-2.4C12.4 3 9 3 9 3s-3.4 0-5.6.4C2 3.6 1.3 4.5 1.2 5.8 1 7.1 1 9 1 9s0 1.9.2 3.2c.2 1.3.8 2.2 2.2 2.4C5.6 15 9 15 9 15s3.4 0 5.6-.4c1.4-.3 2-1.1 2.2-2.4.2-1.3.2-3.2.2-3.2s0-1.9-.2-3.2zM7 12V6l5 3-5 3z"></path>
  </symbol>
  <symbol xmlns="http://www.w3.org/2000/svg" viewBox="0 0 18 18" id="plyr-muted">
    <path d="M15.1 17.3c.2.2.6.2.8 0 .2-.2.2-.6 0-.8L.9 1.7c-.2-.2-.6-.2-.8 0-.2.2-.2.6 0 .8l15 14.8zM1.5 5.5C.7 5.5 0 6.2 0 7v4c0 .8.7 1.5 1.5 1.5h2.9l5 4.7c.4.4 1 .4 1.3 0 .2-.2.3-.4.3-.6v-1.8L1.7 5.5h-.2zM11 1.3c0-.5-.5-.9-1-.9-.2 0-.4.1-.6.3l-4 3.8 5.6 5.6V1.3z"></path>
  </symbol>
  <symbol xmlns="http://www.w3.org/2000/svg" viewBox="0 0 18 18" id="plyr-pause">
    <path d="M6 1H3c-.6 0-1 .4-1 1v14c0 .6.4 1 1 1h3c.6 0 1-.4 1-1V2c0-.6-.4-1-1-1zm6 0c-.6 0-1 .4-1 1v14c0 .6.4 1 1 1h3c.6 0 1-.4 1-1V2c0-.6-.4-1-1-1h-3z"></path>
  </symbol>
  <symbol xmlns="http://www.w3.org/2000/svg" viewBox="0 0 18 18" id="plyr-pip">
    <path d="M13.293 3.293L7.022 9.564l1.414 1.414 6.271-6.271L17 7V1h-6z"></path>
    <path d="M13 15H3V5h5V3H2a1 1 0 00-1 1v12a1 1 0 001 1h12a1 1 0 001-1v-6h-2v5z"></path>
  </symbol>
  <symbol xmlns="http://www.w3.org/2000/svg" viewBox="0 0 18 18" id="plyr-play">
    <path d="M15.562 8.1L3.87.225c-.818-.562-1.87 0-1.87.9v15.75c0 .9 1.052 1.462 1.87.9L15.563 9.9c.584-.45.584-1.35 0-1.8z"></path>
  </symbol>
  <symbol xmlns="http://www.w3.org/2000/svg" viewBox="0 0 18 18" id="plyr-restart">
    <path d="M9.7 1.2l.7 6.4 2.1-2.1c1.9 1.9 1.9 5.1 0 7-.9 1-2.2 1.5-3.5 1.5-1.3 0-2.6-.5-3.5-1.5-1.9-1.9-1.9-5.1 0-7 .6-.6 1.4-1.1 2.3-1.3l-.6-1.9C6 2.6 4.9 3.2 4 4.1 1.3 6.8 1.3 11.2 4 14c1.3 1.3 3.1 2 4.9 2 1.9 0 3.6-.7 4.9-2 2.7-2.7 2.7-7.1 0-9.9L16 1.9l-6.3-.7z"></path>
  </symbol>
  <symbol xmlns="http://www.w3.org/2000/svg" viewBox="0 0 18 18" id="plyr-rewind">
    <path d="M10.125 1L0 9l10.125 8v-6.171L18 17V1l-7.875 6.171z"></path>
  </symbol>
  <symbol xmlns="http://www.w3.org/2000/svg" viewBox="0 0 18 18" id="plyr-settings">
    <path d="M16.135 7.784a2 2 0 01-1.23-2.969c.322-.536.225-.998-.094-1.316l-.31-.31c-.318-.318-.78-.415-1.316-.094a2 2 0 01-2.969-1.23C10.065 1.258 9.669 1 9.219 1h-.438c-.45 0-.845.258-.997.865a2 2 0 01-2.969 1.23c-.536-.322-.999-.225-1.317.093l-.31.31c-.318.318-.415.781-.093 1.317a2 2 0 01-1.23 2.969C1.26 7.935 1 8.33 1 8.781v.438c0 .45.258.845.865.997a2 2 0 011.23 2.969c-.322.536-.225.998.094 1.316l.31.31c.319.319.782.415 1.316.094a2 2 0 012.969 1.23c.151.607.547.865.997.865h.438c.45 0 .845-.258.997-.865a2 2 0 012.969-1.23c.535.321.997.225 1.316-.094l.31-.31c.318-.318.415-.781.094-1.316a2 2 0 011.23-2.969c.607-.151.865-.547.865-.997v-.438c0-.451-.26-.846-.865-.997zM9 12a3 3 0 110-6 3 3 0 010 6z"></path>
  </symbol>
  <symbol xmlns="http://www.w3.org/2000/svg" viewBox="0 0 18 18" id="plyr-volume">
    <path d="M13.2 12.3c-.3 0-.5-.2-.5-.5 0-.1 0-.2.1-.3 1-1.6 1-3.6 0-5.2-.1-.2-.1-.5.1-.7.2-.1.5-.1.7.1 1.3 1.9 1.3 4.4 0 6.2-.1.4-.2.4-.4.4zm2.7 2.3c-.1 0-.2 0-.3-.1-.2-.2-.2-.4-.1-.7 2.1-2.9 2.1-6.8 0-9.6-.2-.2-.1-.5.1-.7.2-.2.5-.1.6.1 2.3 3.2 2.3 7.6 0 10.8 0 .1-.2.2-.3.2zm-6.5 1c0 .4-.4.8-.9.7-.2 0-.4-.1-.5-.2L3.8 12H1.3C.6 12 0 11.4 0 10.7V7.3C0 6.6.6 6 1.3 6h2.5l4.3-4.1c.3-.3.8-.3 1.1 0 .1.1.2.3.2.5v13.2z"></path>
  </symbol>
  <symbol xmlns="http://www.w3.org/2000/svg" viewBox="0 0 18 18" id="plyr-airplay">
    <path d="M16 1H2a1 1 0 00-1 1v10a1 1 0 001 1h3v-2H3V3h12v8h-2v2h3a1 1 0 001-1V2a1 1 0 00-1-1z"></path>
    <path d="M4 17h10l-5-6z"></path>
  </symbol>
  <symbol xmlns="http://www.w3.org/2000/svg" viewBox="0 0 18 18" id="plyr-captions-off">
    <path d="M6 9.3H4.3c-.3 0-.4.2-.4.5s.2.4.4.4H6c.2 0 .4-.2.4-.4s-.2-.5-.4-.5zm4.3 0H7.7c-.2 0-.4.2-.4.4s.2.4.4.4h2.6c.2 0 .4-.2.4-.4s-.2-.4-.4-.4zM6.9 7.6H4.3c-.3 0-.4.2-.4.5s.1.4.4.4h2.6c.2 0 .4-.2.4-.4s-.2-.5-.4-.5zm6.8 1.7H12c-.2 0-.4.2-.4.4s.2.4.4.4h1.7c.2 0 .4-.2.4-.4s-.1-.4-.4-.4zm2.2-7.7H2.1C1 1.6 0 2.6 0 3.8v7.7c0 1.2 1 2.1 2.1 2.1h2.1v2.1c0 .3.1.5.4.6.1 0 .2.1.3.1.2 0 .3-.1.4-.2l2.8-2.5c.1 0 .1-.1.2-.1h7.5c1.2 0 2.1-1 2.1-2.1V3.8c.1-1.2-.9-2.2-2-2.2zm1.2 9.9c0 .7-.6 1.3-1.3 1.3H8.4c-.3 0-.5.1-.7.3l-2.5 2.2v-1.6c0-.5-.4-.9-.9-.9H2.1c-.7 0-1.3-.6-1.3-1.3V3.8c0-.7.6-1.3 1.3-1.3h13.7c.7 0 1.3.6 1.3 1.3v7.7zm-3.4-3.9H8.6c-.2 0-.4.2-.4.4s.2.4.4.4h5.1c.2 0 .4-.2.4-.4s-.1-.4-.4-.4z" fill="#555"></path>
  </symbol>
  <symbol xmlns="http://www.w3.org/2000/svg" viewBox="0 0 18 18" id="plyr-captions-on">
    <path d="M6 9.3H4.3c-.3 0-.4.2-.4.5s.2.4.4.4H6c.2 0 .4-.2.4-.4s-.2-.5-.4-.5zm4.3 0H7.7c-.2 0-.4.2-.4.4s.2.4.4.4h2.6c.2 0 .4-.2.4-.4s-.2-.4-.4-.4zM6.9 7.6H4.3c-.3 0-.4.2-.4.5s.1.4.4.4h2.6c.2 0 .4-.2.4-.4s-.2-.5-.4-.5zm9-6H2.1C1 1.6 0 2.6 0 3.8v7.7c0 1.2 1 2.1 2.1 2.1h2.1v2.1c0 .3.1.5.4.6.1 0 .2.1.3.1.2 0 .3-.1.4-.2l2.8-2.5c.1 0 .1-.1.2-.1h7.5c1.2 0 2.1-1 2.1-2.1V3.8c.1-1.2-.9-2.2-2-2.2zm1.2 9.9c0 .7-.6 1.3-1.3 1.3H8.4c-.3 0-.5.1-.7.3l-2.5 2.2v-1.6c0-.5-.4-.9-.9-.9H2.1c-.7 0-1.3-.6-1.3-1.3V3.8c0-.7.6-1.3 1.3-1.3h13.7c.7 0 1.3.6 1.3 1.3v7.7zm-3.4-3.9H8.6c-.2 0-.4.2-.4.4s.2.4.4.4h5.1c.2 0 .4-.2.4-.4s-.1-.4-.4-.4zm0 1.7H12c-.2 0-.4.2-.4.4s.2.4.4.4h1.7c.2 0 .4-.2.4-.4s-.1-.4-.4-.4z"></path>
  </symbol>
  <symbol xmlns="http://www.w3.org/2000/svg" viewBox="0 0 18 18" id="plyr-download">
    <path d="M9 13c.3 0 .5-.1.7-.3L15.4 7 14 5.6l-4 4V1H8v8.6l-4-4L2.6 7l5.7 5.7c.2.2.4.3.7.3zm-7 2h14v2H2z"></path>
  </symbol>
  <symbol xmlns="http://www.w3.org/2000/svg" viewBox="0 0 18 18" id="plyr-enter-fullscreen">
    <path d="M9.8 10.4l5.6 5.6h-4.5c-.3 0-.5.2-.5.5s.2.5.5.5H16c.6 0 1-.5 1-1v-5.1c0-.3-.2-.5-.5-.5s-.5.2-.5.5v4.5l-5.6-5.6c-.2-.2-.5-.2-.7 0-.1.2-.1.5.1.6zM8.2 7.6L2.6 1.9h4.5c.3 0 .5-.2.5-.5S7.4 1 7.1 1H2c-.5 0-1 .5-1 1v5.1c0 .3.2.5.5.5s.5-.2.5-.5V2.6l5.6 5.6c.2.2.5.2.7 0 .1-.2.1-.5-.1-.6z"></path>
  </symbol>
  <symbol xmlns="http://www.w3.org/2000/svg" viewBox="0 0 18 18" id="plyr-exit-fullscreen">
    <path d="M8 1.4c-.3 0-.5.2-.5.5v4.8l-6-6C1.3.6 1 .5.8.7c-.2.2-.2.5 0 .7l6 6H1.9c-.2.1-.5.3-.5.6s.2.5.5.5h5.4c.7 0 1.2-.5 1.2-1.1V1.9c0-.2-.2-.5-.5-.5zm9.3 15.1l-6-6h4.8c.3 0 .5-.2.5-.5s-.2-.5-.5-.5h-5.4c-.6 0-1.1.5-1.1 1.1V16c0 .3.2.5.5.5s.5-.2.5-.5v-4.8l6 6c.2.2.5.2.7 0 .1-.1.2-.5 0-.7z"></path>
  </symbol>
  <symbol xmlns="http://www.w3.org/2000/svg" viewBox="0 0 18 18" id="plyr-fast-forward">
    <path d="M7.875 7.171L0 1v16l7.875-6.171V17L18 9 7.875 1z"></path>
  </symbol>
  <symbol xmlns="http://www.w3.org/2000/svg" viewBox="0 0 18 18" id="plyr-logo-vimeo">
    <path d="M17 5.3c-.1 1.6-1.2 3.7-3.3 6.4-2.2 2.8-4 4.2-5.5 4.2-.9 0-1.7-.9-2.4-2.6C5 10.9 4.4 6 3 6c-.1 0-.5.3-1.2.8l-.8-1c.8-.7 3.5-3.4 4.7-3.5 1.2-.1 2 .7 2.3 2.5.3 2 .8 6.1 1.8 6.1.9 0 2.5-3.4 2.6-4 .1-.9-.3-1.9-2.3-1.1.8-2.6 2.3-3.8 4.5-3.8 1.7.1 2.5 1.2 2.4 3.3z"></path>
  </symbol>
</svg>