<?xml version="1.0" encoding="utf-8"?><svg version="1.1" xmlns="http://www.w3.org/2000/svg" x="0px" y="0px" width="300px" height="68.01px">
<path fill="#EE7623" d="M23.52,55.97c0.17,0.55-0.14,1.13-0.69,1.3
	c-0.55,0.17-1.13-0.14-1.3-0.69c-0.17-0.55,0.14-1.13,0.69-1.3C22.77,55.11,23.35,55.42,23.52,55.97 M16.8,22.54
	c1.7-0.52,2.66-2.33,2.14-4.03c-0.52-1.71-2.33-2.66-4.03-2.14c-1.7,0.52-2.66,2.33-2.14,4.03C13.29,22.1,15.1,23.06,16.8,22.54
	 M16.71,26.84c-0.46-1.51-2.06-2.36-3.58-1.9c-1.51,0.46-2.36,2.06-1.9,3.57c0.46,1.51,2.06,2.36,3.58,1.9
	C16.32,29.95,17.17,28.35,16.71,26.84 M16.11,34.53c-0.4-1.32-1.8-2.06-3.12-1.66c-1.32,0.4-2.06,1.8-1.66,3.12
	c0.4,1.32,1.8,2.06,3.12,1.66C15.77,37.24,16.51,35.84,16.11,34.53 M16.96,41.4c-0.34-1.13-1.54-1.76-2.66-1.42
	c-1.13,0.34-1.76,1.54-1.42,2.66c0.35,1.13,1.54,1.76,2.66,1.41C16.67,43.72,17.3,42.53,16.96,41.4 M18.8,47.33
	c-0.29-0.93-1.27-1.46-2.21-1.17c-0.93,0.28-1.46,1.27-1.17,2.21c0.29,0.93,1.27,1.46,2.21,1.17C18.56,49.26,19.09,48.27,18.8,47.33
	 M21.14,52.06c-0.23-0.74-1.01-1.16-1.75-0.93c-0.74,0.23-1.16,1.01-0.93,1.75c0.23,0.74,1.01,1.16,1.75,0.93
	C20.95,53.59,21.37,52.8,21.14,52.06 M20.98,14.74c1.9-0.58,2.96-2.59,2.38-4.49c-0.58-1.9-2.59-2.96-4.49-2.38
	c-1.9,0.58-2.97,2.59-2.38,4.49C17.08,14.26,19.09,15.32,20.98,14.74 M22.83,5.26c0.64,2.09,2.85,3.26,4.94,2.62
	c2.09-0.64,3.26-2.85,2.62-4.94c-0.64-2.09-2.85-3.27-4.94-2.63C23.37,0.95,22.19,3.17,22.83,5.26"/>
<path fill="#99A4AD" d="M21.45,41.76c-0.22,0.53-0.83,0.78-1.36,0.55
	c-0.53-0.22-0.78-0.84-0.55-1.36c0.22-0.53,0.83-0.78,1.36-0.55C21.42,40.62,21.67,41.23,21.45,41.76 M37.78,11.83
	c1.64,0.7,3.54-0.07,4.23-1.71c0.7-1.64-0.07-3.54-1.71-4.23c-1.64-0.7-3.54,0.07-4.23,1.71C35.38,9.24,36.14,11.14,37.78,11.83
	 M34.94,15.07c0.62-1.46-0.06-3.14-1.52-3.75c-1.46-0.62-3.14,0.06-3.75,1.52c-0.62,1.46,0.06,3.14,1.52,3.75
	C32.65,17.2,34.33,16.52,34.94,15.07 M29.55,20.57c0.54-1.27-0.06-2.74-1.33-3.28c-1.27-0.54-2.74,0.05-3.28,1.33
	c-0.54,1.27,0.06,2.74,1.33,3.28C27.54,22.43,29.01,21.84,29.55,20.57 M25.78,26.38c0.46-1.08-0.05-2.34-1.13-2.8
	c-1.08-0.46-2.34,0.05-2.8,1.13c-0.46,1.08,0.05,2.34,1.13,2.8C24.07,27.97,25.32,27.46,25.78,26.38 M23.38,32.11
	c0.38-0.9-0.04-1.94-0.94-2.32c-0.9-0.38-1.94,0.04-2.32,0.94c-0.38,0.9,0.04,1.94,0.94,2.32C21.96,33.43,23,33.01,23.38,32.11
	 M22.13,37.24c0.3-0.71-0.03-1.54-0.75-1.84c-0.71-0.3-1.54,0.03-1.84,0.74c-0.3,0.71,0.03,1.54,0.74,1.84
	C21,38.28,21.83,37.95,22.13,37.24 M46,8.55c1.83,0.77,3.93-0.08,4.71-1.9c0.77-1.83-0.08-3.93-1.9-4.71
	c-1.83-0.77-3.94,0.08-4.71,1.9C43.32,5.66,44.17,7.77,46,8.55 M53.51,2.47c-0.85,2.01,0.09,4.33,2.1,5.19
	c2.01,0.85,4.33-0.09,5.19-2.1s-0.09-4.33-2.1-5.19C56.69-0.48,54.37,0.46,53.51,2.47"/>
<path fill="#005DA6" d="M35.3,66.04c0.48,0.31,0.62,0.96,0.31,1.44
	c-0.31,0.48-0.96,0.62-1.44,0.31c-0.48-0.31-0.62-0.96-0.31-1.44C34.18,65.87,34.82,65.73,35.3,66.04 M8.66,44.76
	c0.97-1.5,0.54-3.49-0.95-4.46c-1.5-0.97-3.49-0.54-4.47,0.95c-0.97,1.49-0.54,3.49,0.95,4.46C5.69,46.68,7.69,46.25,8.66,44.76
	 M11.36,48.11c-1.33-0.86-3.1-0.48-3.96,0.84c-0.86,1.33-0.48,3.1,0.84,3.96c1.33,0.86,3.1,0.48,3.96-0.84
	C13.06,50.75,12.68,48.97,11.36,48.11 M15.84,54.38c-1.16-0.75-2.71-0.42-3.46,0.74c-0.75,1.16-0.42,2.7,0.74,3.46
	c1.16,0.75,2.71,0.42,3.46-0.74C17.32,56.68,16.99,55.13,15.84,54.38 M20.91,59.1c-0.99-0.64-2.31-0.36-2.95,0.63
	c-0.64,0.99-0.36,2.31,0.63,2.95c0.99,0.64,2.31,0.36,2.95-0.63C22.18,61.07,21.89,59.74,20.91,59.1 M26.14,62.46
	c-0.82-0.53-1.91-0.3-2.45,0.52c-0.53,0.82-0.3,1.92,0.52,2.45c0.82,0.53,1.92,0.3,2.45-0.52C27.19,64.09,26.95,63,26.14,62.46
	 M30.97,64.58c-0.65-0.42-1.52-0.24-1.94,0.42c-0.42,0.65-0.24,1.52,0.41,1.94c0.65,0.42,1.52,0.24,1.94-0.41
	C31.8,65.87,31.62,65,30.97,64.58 M6.86,36.1c1.08-1.66,0.61-3.89-1.06-4.97c-1.66-1.08-3.89-0.61-4.97,1.06
	c-1.08,1.66-0.61,3.89,1.06,4.97C3.55,38.23,5.78,37.76,6.86,36.1 M2.18,27.64c1.83,1.19,4.28,0.67,5.47-1.17
	c1.19-1.83,0.67-4.28-1.17-5.47c-1.83-1.19-4.28-0.67-5.47,1.16C-0.18,24,0.34,26.45,2.18,27.64 M46.22,20.69
	c0.54-1.49,0.72-1.76,0.99-1.76c0.27,0,0.45,0.23,0.99,1.62c0.68,1.71,7.75,20.32,10.5,27.17c1.62,4.01,2.93,4.73,3.87,5
	c0.68,0.23,1.35,0.27,1.8,0.27c0.27,0,0.45,0.04,0.45,0.27c0,0.27-0.41,0.36-0.9,0.36c-0.68,0-3.97,0-7.07-0.09
	c-0.86-0.05-1.35-0.05-1.35-0.32c0-0.18,0.13-0.27,0.31-0.32c0.27-0.09,0.54-0.5,0.27-1.22L51.9,40.61
	c-0.09-0.18-0.18-0.27-0.41-0.27h-9.69c-0.23,0-0.36,0.13-0.45,0.36l-2.7,7.98c-0.4,1.13-0.63,2.21-0.63,3.02
	c0,0.9,0.95,1.31,1.71,1.31h0.45c0.32,0,0.45,0.09,0.45,0.27c0,0.27-0.27,0.36-0.68,0.36c-1.08,0-3.02-0.14-3.52-0.14
	c-0.5,0-2.97,0.14-5.09,0.14c-0.58,0-0.86-0.09-0.86-0.36c0-0.18,0.18-0.27,0.41-0.27c0.32,0,0.95-0.05,1.31-0.09
	c2.07-0.27,2.97-1.98,3.79-4.24L46.22,20.69z M50.91,38.72c0.23,0,0.23-0.14,0.18-0.32l-4.28-12.17c-0.23-0.68-0.45-0.68-0.68,0
	L42.17,38.4c-0.09,0.23,0,0.32,0.13,0.32H50.91z M103.59,20.15c-0.09-0.86-0.23-1.22-0.54-1.22c-0.31,0-0.5,0.32-0.68,0.72
	l-13.25,28.3L75.34,19.61c-0.22-0.5-0.41-0.68-0.68-0.68c-0.27,0-0.45,0.32-0.5,0.81l-3.24,29.38c-0.18,1.71-0.32,3.47-1.8,3.74
	C68.44,53,68.13,53,67.77,53c-0.23,0-0.45,0.09-0.45,0.23c0,0.32,0.32,0.41,0.77,0.41c1.22,0,3.38-0.13,3.79-0.13
	c0.36,0,2.52,0.13,4.19,0.13c0.54,0,0.81-0.09,0.81-0.41c0-0.13-0.18-0.23-0.36-0.23c-0.27,0-0.95-0.04-1.71-0.23
	c-0.68-0.13-1.17-0.72-1.17-1.4c0-0.77,0-1.58,0.05-2.3l1.8-20.91h0.18c0.5,1.22,5.54,12.03,5.95,12.84
	c0.23,0.45,4.1,8.25,5.27,10.45c0.86,1.62,1.08,2.07,1.4,2.07c0.41,0,0.54-0.4,1.49-2.39l11.04-23.43h0.13l2.16,23.39
	c0.09,0.81,0.04,1.58-0.18,1.62c-0.22,0.04-0.32,0.13-0.32,0.32c0,0.23,0.23,0.36,1.26,0.45c1.67,0.13,6.53,0.18,7.52,0.18
	c0.54,0,0.95-0.14,0.95-0.41c0-0.18-0.14-0.23-0.36-0.23c-0.45,0-1.62,0-2.93-0.41c-1.94-0.63-2.25-3.15-2.43-4.78L103.59,20.15z
	 M117.52,53.05c1.85,0.9,3.92,1.22,6.04,1.22c2.43,0,4.87-0.54,6.8-1.89c3.11-2.21,3.83-5.63,3.83-7.48c0-3.61-1.26-6.4-6.58-10.59
	l-1.26-0.99c-4.33-3.38-5.5-5-5.5-7.57c0-3.29,2.43-5.23,5.54-5.23c4.15,0,5.36,1.89,5.63,2.39c0.27,0.5,0.54,1.71,0.59,2.25
	c0.05,0.36,0.09,0.59,0.36,0.59c0.23,0,0.32-0.32,0.32-1.04c0-3.06,0.18-4.55,0.18-4.78c0-0.23-0.09-0.32-0.45-0.32
	c-0.36,0-0.72-0.04-1.58-0.22c-1.13-0.27-2.43-0.45-4.19-0.45c-5.72,0-9.33,3.29-9.33,8.11c0,3.06,1.08,5.86,5.86,9.78l2.03,1.67
	c3.88,3.2,5.18,5,5.18,8.11c0,2.88-2.12,5.99-6.44,5.99c-3.02,0-5.99-1.26-6.67-4.6c-0.14-0.63-0.14-1.26-0.14-1.67
	c0-0.36-0.04-0.5-0.32-0.5c-0.23,0-0.31,0.23-0.36,0.72c-0.05,0.72-0.23,2.52-0.23,4.78C116.85,52.55,116.89,52.73,117.52,53.05
	 M147.68,22.63c0.2-0.01,0.36-0.01,0.42-0.01c0.08,0,0.26,0.01,0.47,0.02c0.32,0.02,0.71,0.04,0.98,0.04c0.38,0,0.43-0.19,0.43-0.3
	c0-0.06-0.02-0.27-0.34-0.27h-0.19c-0.21,0-0.55-0.1-0.55-0.39c0-0.32,0.09-0.75,0.25-1.2l1.11-3.29c0.02-0.05,0.03-0.05,0.04-0.05
	l4.03,0.01l1.73,4.58c0.04,0.11,0.05,0.2,0.02,0.26c-0.01,0.03-0.03,0.04-0.02,0.04c-0.22,0.06-0.25,0.21-0.25,0.28
	c0,0.25,0.27,0.26,0.62,0.28l0.09,0c0.83,0.02,1.87,0.04,2.93,0.04c0.44,0,0.53-0.16,0.53-0.3c0-0.1-0.04-0.27-0.34-0.27
	c-0.18,0-0.44-0.02-0.7-0.11c-0.39-0.11-0.88-0.44-1.5-1.98c-0.81-2.01-2.52-6.48-3.54-9.15c-0.42-1.08-0.72-1.87-0.8-2.08
	c-0.22-0.56-0.32-0.77-0.55-0.77c-0.23,0-0.33,0.21-0.55,0.83l-4.23,11.56c-0.35,0.97-0.7,1.55-1.44,1.65
	c-0.15,0.02-0.4,0.04-0.52,0.04c-0.19,0-0.32,0.11-0.32,0.27c0,0.3,0.37,0.3,0.51,0.3C146.59,22.67,147.25,22.64,147.68,22.63
	 M150.64,16.2l1.61-4.94l1.73,4.94H150.64z M161.59,22.67c0.29,0,0.71-0.02,1.01-0.04c0.17-0.01,0.31-0.02,0.36-0.02
	c0.04,0,0.14,0.01,0.28,0.01c0.33,0.02,0.82,0.04,1.24,0.04c0.37,0,0.45-0.16,0.45-0.3c0-0.15-0.15-0.26-0.28-0.26
	c-0.12,0-0.35-0.02-0.6-0.09c-0.27-0.06-0.27-0.24-0.27-0.3c0-0.26,0-0.55,0.02-0.79l0.59-6.71c0.3,0.63,0.83,1.72,1.27,2.62
	c0.26,0.52,0.49,1,0.64,1.31c0.4,0.84,1.48,2.87,1.92,3.67c0.32,0.59,0.44,0.81,0.69,0.81c0.25,0,0.37-0.22,0.71-0.92l3.74-7.66
	l0.74,7.54c0.03,0.23,0.01,0.36,0,0.4c-0.11,0.04-0.19,0.15-0.19,0.27c0,0.26,0.35,0.3,0.6,0.32c0.62,0.06,2.45,0.09,2.81,0.09
	c0.3,0,0.49-0.12,0.49-0.3c0-0.15-0.12-0.26-0.28-0.26c-0.16,0-0.57,0-1.01-0.14c-0.53-0.18-0.67-0.83-0.73-1.51l-1.12-9.72
	c-0.06-0.46-0.25-0.56-0.39-0.56c-0.22,0-0.34,0.23-0.4,0.35l-4.63,9.53l-4.81-9.55c-0.14-0.28-0.36-0.33-0.47-0.33
	c-0.18,0-0.31,0.16-0.34,0.42l-1.19,10.33l-0.02,0.15c-0.07,0.57-0.13,0.92-0.49,0.98l-0.06,0.01c-0.2,0.03-0.3,0.05-0.41,0.05
	c-0.18,0-0.32,0.12-0.32,0.26C161.16,22.48,161.21,22.67,161.59,22.67 M179.88,10.95c0.14,0,0.41,0.02,0.54,0.04
	c0.43,0.06,0.5,0.22,0.54,0.74c0.04,0.5,0.04,0.94,0.04,3.4v2.79c0,1.54,0,2.76-0.09,3.4l-0.01,0.06c-0.07,0.46-0.11,0.62-0.29,0.65
	c-0.06,0.01-0.12,0.02-0.19,0.03c-0.1,0.02-0.21,0.04-0.29,0.04c-0.18,0-0.28,0.15-0.28,0.28c0,0.11,0.05,0.28,0.41,0.28
	c0.22,0,0.52-0.01,0.96-0.04c0.35-0.02,0.66-0.02,0.7-0.02c0.25,0,0.67,0,1.35,0.04l0.38,0.01c0.65,0.02,1.46,0.05,2.48,0.05
	c0.63,0,0.92,0,1.06-0.52c0.1-0.35,0.23-1.44,0.23-1.57c0-0.36-0.19-0.39-0.26-0.39c-0.25,0-0.29,0.24-0.32,0.37
	c-0.09,0.62-0.31,0.83-0.65,0.98c-0.4,0.16-1.17,0.16-1.58,0.16c-1.61,0-1.77-0.2-1.8-1.12c-0.01-0.22-0.01-1.24,0-1.99
	c0-0.3,0-0.55,0-0.7v-1.28c0.4,0,2.01,0.02,2.42,0.07c0.63,0.07,0.68,0.26,0.71,0.38c0.06,0.18,0.06,0.33,0.06,0.47
	c0,0.21,0.13,0.3,0.27,0.3c0.18,0,0.3-0.18,0.3-0.45c0-0.1,0.04-0.69,0.07-1.01c0.02-0.33,0.07-0.55,0.1-0.7
	c0.02-0.09,0.03-0.14,0.03-0.19c0-0.2-0.12-0.28-0.25-0.28c-0.11,0-0.19,0.08-0.28,0.18l-0.07,0.07c-0.12,0.12-0.3,0.14-0.71,0.18
	c-0.26,0.03-1.53,0.04-2.66,0.04v-0.01v-4.3v-0.01c0.38,0,2.03,0.02,2.28,0.06c0.89,0.11,0.98,0.22,1.05,0.39
	c0.06,0.15,0.08,0.38,0.08,0.5c0,0.33,0.22,0.36,0.28,0.36c0.16,0,0.26-0.14,0.3-0.29c0.03-0.13,0.05-0.45,0.07-0.73
	c0.01-0.15,0.02-0.27,0.03-0.33c0.02-0.26,0.06-0.43,0.1-0.55c0.02-0.08,0.04-0.14,0.04-0.21c0-0.22-0.12-0.3-0.23-0.3
	c-0.08,0-0.14,0.03-0.2,0.05c-0.02,0.01-0.04,0.02-0.05,0.02l-0.1,0.02c-0.15,0.02-0.39,0.06-0.63,0.08c-0.21,0.01-1.45,0.01-3.69,0
	h-0.21c-0.02,0-0.11,0-0.24-0.01c-0.38-0.01-1.1-0.03-1.66-0.03c-0.27,0-0.41,0.1-0.41,0.28C179.6,10.81,179.74,10.95,179.88,10.95
	 M190.33,10.95c0.14,0,0.41,0.02,0.54,0.04c0.43,0.06,0.5,0.22,0.54,0.74c0.04,0.5,0.04,0.94,0.04,3.4v2.79c0,1.54,0,2.76-0.09,3.4
	l-0.01,0.05c-0.07,0.47-0.11,0.62-0.31,0.67c-0.14,0.03-0.33,0.07-0.47,0.07c-0.18,0-0.28,0.15-0.28,0.28
	c0,0.11,0.05,0.28,0.41,0.28c0.43,0,1.27-0.04,1.54-0.05l0.08,0c0.02,0,0.08,0,0.18,0.01c0.34,0.01,1.14,0.05,1.83,0.05
	c0.38,0,0.42-0.22,0.42-0.28c0-0.17-0.12-0.28-0.28-0.28c-0.14,0-0.48-0.04-0.7-0.07c-0.38-0.06-0.47-0.23-0.52-0.7
	c-0.07-0.64-0.07-1.86-0.07-3.39l0-0.35l2.04,0.04c0.07,0,0.07,0,0.11,0.04c0.16,0.19,0.4,0.51,0.67,0.88
	c0.34,0.45,0.72,0.96,1.09,1.43c0.93,1.19,1.55,1.98,2.28,2.37c0.46,0.25,0.92,0.34,1.82,0.34h1.02c0.19,0,0.54,0,0.54-0.28
	c0-0.14-0.12-0.28-0.3-0.28c-0.09,0-0.25,0-0.56-0.05c-0.42-0.06-0.93-0.23-1.74-1.05c-0.89-0.92-1.95-2.25-3.18-3.79l-0.15-0.18
	c1.35-1.18,1.95-2.31,1.95-3.63c0-1.34-1-2.14-1.2-2.28c-0.91-0.63-2.1-0.72-3.14-0.72c-0.32,0-0.99,0.02-1.48,0.03
	c-0.28,0.01-0.5,0.01-0.57,0.01c-0.02,0-0.12,0-0.25-0.01c-0.39-0.01-1.13-0.03-1.69-0.03c-0.27,0-0.41,0.1-0.41,0.28
	C190.05,10.81,190.19,10.95,190.33,10.95 M193.16,11.38c0-0.01,0-0.03,0.01-0.04c0.14-0.03,0.65-0.09,1.14-0.09
	c1.68,0,2.68,1.11,2.68,2.96c0,1.05-0.34,1.91-0.92,2.29c-0.35,0.23-0.76,0.25-1.14,0.25c-0.75,0-1.54-0.12-1.71-0.21
	c-0.05-0.04-0.05-0.05-0.05-0.08V11.38z M203.98,10.95c0.1,0,0.3,0.02,0.47,0.05c0.24,0.05,0.36,0.17,0.4,0.72
	c0.04,0.5,0.04,0.94,0.04,3.4v2.79c0,1.21-0.01,2.69-0.09,3.41c-0.06,0.49-0.11,0.66-0.31,0.71c-0.14,0.03-0.33,0.07-0.47,0.07
	c-0.19,0-0.28,0.15-0.28,0.28c0,0.11,0.05,0.28,0.41,0.28c0.36,0,0.96-0.03,1.33-0.04c0.15-0.01,0.26-0.01,0.29-0.01
	c0.02,0,0.08,0,0.18,0.01c0.35,0.01,1.16,0.05,1.87,0.05c0.38,0,0.41-0.22,0.41-0.28c0-0.14-0.1-0.28-0.28-0.28
	c-0.13,0-0.47-0.03-0.72-0.07c-0.36-0.06-0.41-0.23-0.47-0.7c-0.07-0.64-0.07-1.86-0.07-3.41v-2.79c0-2.46,0-2.9,0.02-3.4
	c0.04-0.54,0.11-0.66,0.45-0.74c0.17-0.03,0.27-0.03,0.38-0.03c0.14,0,0.28-0.14,0.28-0.28c0-0.19-0.14-0.28-0.41-0.28
	c-0.36,0-1.02,0.02-1.39,0.03c-0.14,0-0.23,0.01-0.25,0.01c-0.03,0-0.13,0-0.28-0.01c-0.37-0.01-0.99-0.03-1.38-0.03
	c-0.27,0-0.41,0.1-0.41,0.28C203.7,10.81,203.81,10.95,203.98,10.95 M211.87,21.14c1.36,1.18,3.11,1.73,5.5,1.73
	c0.63,0,2.17-0.04,3.02-0.37c0.33-0.13,0.4-0.23,0.5-0.56c0.17-0.54,0.4-1.94,0.4-2.07c0-0.18-0.12-0.38-0.3-0.38
	c-0.24,0-0.28,0.19-0.32,0.35c-0.05,0.26-0.26,0.91-0.59,1.24c-0.59,0.59-1.34,0.7-2.59,0.7c-3.22,0-5.75-2.45-5.75-5.58
	c0-1.41,0.17-2.87,1.42-4.02c0.76-0.71,1.93-1.06,3.58-1.06c1.29,0,2.51,0.33,3.13,0.84c0.38,0.3,0.63,0.88,0.63,1.46
	c0,0.17,0,0.49,0.28,0.49c0.11,0,0.31-0.06,0.34-0.48c0.01-0.13,0.01-0.43,0.02-0.79c0-0.29,0.01-0.6,0.02-0.83
	c0.02-0.32,0.04-0.52,0.06-0.66c0.01-0.11,0.02-0.18,0.02-0.25c0-0.1-0.03-0.32-0.35-0.32c-0.45-0.02-0.88-0.1-1.38-0.19l-0.28-0.05
	c-0.85-0.14-1.8-0.19-2.41-0.19c-2.21,0-3.88,0.57-5.1,1.74c-1.39,1.36-1.89,3.18-1.89,4.43C209.82,18.35,210.51,19.97,211.87,21.14
	 M222.53,22.67c0.45,0,0.97-0.03,1.31-0.04c0.17-0.01,0.29-0.01,0.35-0.01c0.07,0,0.27,0.01,0.49,0.02
	c0.33,0.02,0.75,0.04,0.98,0.04c0.36,0,0.4-0.2,0.4-0.28c0-0.14-0.08-0.28-0.32-0.28h-0.15c-0.15,0-0.4-0.04-0.4-0.27
	c0-0.25,0.08-0.62,0.23-1.01l0.93-2.53c0.01-0.02,0.02-0.03,0.03-0.03l3.79,0l1.47,3.63c0.03,0.06,0.03,0.11,0.01,0.15
	c-0.02,0.05-0.07,0.07-0.08,0.08l-0.04,0.02c-0.06,0.03-0.16,0.07-0.16,0.23c0,0.23,0.27,0.24,0.6,0.26l0.12,0.01
	c0.73,0.02,1.65,0.04,2.59,0.04c0.46,0,0.53-0.18,0.53-0.28c0-0.17-0.15-0.28-0.36-0.28c-0.12,0-0.36-0.01-0.61-0.09
	c-0.28-0.09-0.7-0.22-1.3-1.65c-0.52-1.25-1.48-3.61-2.33-5.69c-0.78-1.93-1.46-3.59-1.6-3.92c-0.03-0.07-0.06-0.14-0.09-0.2
	c-0.12-0.26-0.21-0.47-0.44-0.47c-0.23,0-0.34,0.21-0.53,0.71l-3.86,9.91c-0.32,0.82-0.62,1.28-1.26,1.36
	c-0.13,0.02-0.36,0.04-0.46,0.04c-0.16,0-0.3,0.13-0.3,0.28C222.06,22.57,222.22,22.67,222.53,22.67 M226.71,17.3l1.49-4.23
	l1.58,4.23H226.71z M236.42,22.67c0.52,0,1.01-0.03,1.31-0.04c0.13-0.01,0.23-0.01,0.27-0.01c0.04,0,0.12,0,0.24,0.01
	c0.31,0.02,0.83,0.05,1.5,0.05c0.37,0,0.45-0.15,0.45-0.28c0-0.16-0.12-0.28-0.28-0.28c-0.17,0-0.52-0.02-0.78-0.09
	c-0.33-0.08-0.48-0.34-0.52-1.66l-0.18-7.06c0.74,0.79,2.35,2.49,3.97,4.19c1.75,1.83,4.11,4.15,4.27,4.29
	c0.93,0.86,1.12,1.01,1.35,1.01c0.28,0,0.28-0.22,0.28-1.29l0.04-9.27c0-1,0.06-1.15,0.45-1.23c0.17-0.03,0.29-0.03,0.36-0.03
	c0.19,0,0.34-0.16,0.34-0.3c0-0.26-0.33-0.26-0.45-0.26c-0.44,0-0.83,0.02-1.09,0.03c-0.14,0-0.24,0.01-0.3,0.01
	c-0.06,0-0.19,0-0.36-0.01c-0.34-0.01-0.86-0.03-1.36-0.03c-0.14,0-0.47,0-0.47,0.26c0,0.18,0.11,0.3,0.28,0.3
	c0.12,0,0.49,0.02,0.77,0.07c0.36,0.07,0.47,0.26,0.49,1.32l0.16,7.54c-0.17-0.18-0.39-0.41-0.64-0.68c-0.8-0.85-1.9-2.02-2.96-3.12
	c-1.69-1.74-3.31-3.44-4.28-4.46c-0.49-0.51-0.81-0.85-0.9-0.94l-0.07-0.07c-0.24-0.25-0.46-0.46-0.67-0.46
	c-0.33,0-0.38,0.46-0.38,0.95v9.07c0,1.42-0.06,1.75-0.36,1.83c-0.22,0.07-0.51,0.09-0.63,0.09c-0.16,0-0.28,0.13-0.28,0.28
	C236.01,22.67,236.31,22.67,236.42,22.67 M160.6,41.12c0.03,0.28,0.01,0.45,0,0.52c-0.18,0.06-0.2,0.19-0.2,0.27
	c0,0.28,0.37,0.31,0.66,0.34c0.71,0.06,2.73,0.11,3.12,0.11c0.51,0,0.55-0.25,0.55-0.32c0-0.07-0.03-0.25-0.3-0.25
	c-0.18,0-0.65,0-1.16-0.16c-0.67-0.22-0.81-1.07-0.9-1.84l-1.25-11.43c-0.03-0.25-0.07-0.64-0.38-0.64c-0.25,0-0.35,0.24-0.42,0.39
	l-5.34,11.4l-5.56-11.42c-0.09-0.19-0.2-0.37-0.42-0.37c-0.07,0-0.32,0.03-0.36,0.47l-1.34,12.14l-0.01,0.07
	c-0.08,0.76-0.17,1.26-0.62,1.34c-0.26,0.05-0.38,0.05-0.53,0.05c-0.2,0-0.34,0.1-0.34,0.25c0,0.15,0.08,0.32,0.47,0.32
	c0.32,0,0.8-0.02,1.15-0.04c0.2-0.01,0.35-0.02,0.41-0.02c0.05,0,0.17,0,0.33,0.01c0.37,0.02,0.93,0.04,1.4,0.04
	c0.12,0,0.49,0,0.49-0.32c0-0.14-0.13-0.25-0.3-0.25c-0.11,0-0.37-0.02-0.68-0.09c-0.21-0.04-0.36-0.22-0.36-0.43
	c0-0.32,0-0.65,0.02-0.94l0.71-8.19c0.56,1.24,2.13,4.6,2.28,4.91l0.08,0.17c1.11,2.22,1.81,3.61,2.1,4.15l0.04,0.07
	c0.37,0.7,0.46,0.87,0.68,0.87c0.24,0,0.32-0.15,0.63-0.81l4.5-9.54L160.6,41.12z M175.19,41.57c0.03,0.06,0.03,0.11,0.02,0.15
	c-0.02,0.05-0.07,0.07-0.08,0.08l-0.04,0.02c-0.06,0.03-0.16,0.07-0.16,0.23c0,0.23,0.27,0.24,0.6,0.26l0.12,0.01
	c0.73,0.02,1.66,0.04,2.59,0.04c0.46,0,0.53-0.18,0.53-0.28c0-0.17-0.15-0.28-0.36-0.28c-0.12,0-0.36-0.01-0.61-0.09
	c-0.28-0.09-0.7-0.22-1.3-1.65c-0.52-1.25-1.48-3.61-2.33-5.69c-0.78-1.93-1.46-3.59-1.6-3.92c-0.03-0.07-0.06-0.14-0.09-0.2
	c-0.12-0.26-0.21-0.47-0.44-0.47c-0.23,0-0.33,0.21-0.53,0.71l-3.86,9.91c-0.32,0.82-0.62,1.28-1.26,1.36
	c-0.12,0.02-0.36,0.04-0.46,0.04c-0.16,0-0.3,0.13-0.3,0.28c0,0.19,0.16,0.28,0.47,0.28c0.45,0,0.97-0.03,1.31-0.04
	c0.17-0.01,0.29-0.01,0.35-0.01c0.07,0,0.26,0.01,0.49,0.02c0.34,0.02,0.75,0.04,0.98,0.04c0.36,0,0.4-0.2,0.4-0.28
	c0-0.14-0.09-0.28-0.32-0.28h-0.15c-0.15,0-0.4-0.04-0.4-0.27c0-0.25,0.08-0.62,0.23-1.01l0.93-2.53c0.01-0.02,0.02-0.03,0.02-0.03
	l3.79,0L175.19,41.57z M173.35,36.98h-3.07l1.49-4.23L173.35,36.98z M185.76,31.15c1.53,0.04,1.78,0.38,1.83,0.74l0.02,0.16
	c0.01,0.15,0.04,0.42,0.28,0.42c0.15,0,0.3-0.13,0.3-0.36c0-0.07,0.01-0.28,0.02-0.53c0.02-0.42,0.04-0.97,0.04-1.27
	c0-0.08,0-0.34-0.23-0.34c-0.05,0-0.13,0.01-0.24,0.03c-0.07,0.01-0.15,0.03-0.25,0.04c-0.34,0.05-0.72,0.07-1.15,0.07h-6.18
	c-0.18,0-0.8-0.02-1.27-0.07c-0.26-0.03-0.41-0.09-0.53-0.13c-0.08-0.03-0.15-0.06-0.22-0.06c-0.15,0-0.22,0.18-0.3,0.36l-0.02,0.07
	c-0.01,0.04-0.05,0.24-0.1,0.48c-0.17,0.76-0.25,1.15-0.25,1.25c0,0.17,0.14,0.28,0.26,0.28c0.16,0,0.26-0.08,0.3-0.23
	c0.02-0.03,0.03-0.07,0.05-0.1c0.03-0.09,0.08-0.19,0.21-0.38c0.2-0.31,0.56-0.42,1.53-0.43l2.21-0.03v6.49c0,1.54,0,2.77-0.07,3.41
	c-0.06,0.49-0.15,0.68-0.37,0.73c-0.18,0.05-0.34,0.07-0.45,0.07c-0.19,0-0.28,0.13-0.28,0.26c0,0.19,0.14,0.28,0.41,0.28
	c0.35,0,1.02-0.03,1.42-0.05c0.15-0.01,0.25-0.01,0.27-0.01c0.02,0,0.1,0,0.22,0.01c0.37,0.02,1.14,0.05,1.81,0.05
	c0.38,0,0.41-0.22,0.41-0.28c0-0.17-0.11-0.28-0.28-0.28c-0.14,0-0.5-0.04-0.72-0.07c-0.39-0.06-0.45-0.25-0.5-0.7
	c-0.07-0.64-0.07-1.86-0.07-3.41v-6.49L185.76,31.15z M203.4,42.07c0-0.14-0.1-0.28-0.3-0.28c-0.12,0-0.48-0.04-0.7-0.07
	c-0.37-0.05-0.41-0.21-0.47-0.7c-0.08-0.71-0.09-2.2-0.09-3.41v-2.79c0-2.46,0-2.9,0.04-3.4c0.04-0.56,0.13-0.67,0.43-0.73
	c0.19-0.03,0.27-0.03,0.38-0.03c0.15,0,0.3-0.14,0.3-0.28c0-0.13-0.08-0.28-0.43-0.28c-0.34,0-0.95,0.02-1.32,0.03
	c-0.16,0-0.28,0.01-0.3,0.01c-0.02,0-0.09,0-0.2,0c-0.36-0.01-1.1-0.03-1.66-0.03c-0.27,0-0.41,0.1-0.41,0.28
	c0,0.13,0.12,0.28,0.28,0.28c0.14,0,0.41,0.02,0.54,0.04c0.42,0.06,0.48,0.2,0.52,0.74c0.02,0.49,0.04,0.99,0.04,3.43l0,0.28
	l-6.71,0v-0.27c0-2.43,0-2.94,0.02-3.43c0.04-0.54,0.11-0.66,0.45-0.73c0.17-0.03,0.27-0.03,0.38-0.03c0.14,0,0.28-0.14,0.28-0.28
	c0-0.19-0.14-0.28-0.41-0.28c-0.36,0-1.01,0.02-1.37,0.03c-0.14,0-0.23,0.01-0.25,0.01c-0.02,0-0.11,0-0.24-0.01
	c-0.37-0.01-1.09-0.03-1.64-0.03c-0.27,0-0.41,0.1-0.41,0.28c0,0.14,0.14,0.28,0.28,0.28c0.14,0,0.41,0.02,0.54,0.04
	c0.43,0.06,0.5,0.22,0.54,0.73c0.04,0.5,0.04,0.94,0.04,3.4v2.79c0,1.54,0,2.76-0.09,3.4l-0.01,0.04c-0.07,0.47-0.11,0.62-0.31,0.67
	c-0.13,0.03-0.33,0.07-0.46,0.07c-0.19,0-0.28,0.15-0.28,0.28c0,0.11,0.05,0.28,0.41,0.28c0.36,0,0.97-0.03,1.34-0.04
	c0.16-0.01,0.27-0.01,0.29-0.01c0.02,0,0.08,0,0.18,0.01c0.34,0.01,1.14,0.05,1.85,0.05c0.38,0,0.41-0.22,0.41-0.28
	c0-0.14-0.1-0.28-0.28-0.28c-0.13,0-0.47-0.03-0.72-0.07c-0.36-0.05-0.41-0.23-0.47-0.7c-0.07-0.64-0.07-1.85-0.07-3.37v-1.52h6.71
	v1.52c0,1.51,0,2.71-0.07,3.35c-0.06,0.5-0.12,0.68-0.33,0.73c-0.18,0.05-0.34,0.07-0.45,0.07c-0.19,0-0.28,0.15-0.28,0.28
	c0,0.19,0.14,0.28,0.41,0.28c0.35,0,1.01-0.03,1.36-0.04c0.14-0.01,0.23-0.01,0.25-0.01c0.02,0,0.1,0,0.22,0.01
	c0.37,0.01,1.14,0.05,1.81,0.05C203.38,42.36,203.4,42.12,203.4,42.07 M213.64,39.91c-0.25,0-0.29,0.24-0.32,0.37
	c-0.09,0.62-0.31,0.83-0.65,0.98c-0.4,0.16-1.17,0.16-1.58,0.16c-1.61,0-1.77-0.2-1.8-1.12c-0.01-0.22-0.01-1.24,0-1.99
	c0-0.29,0-0.55,0-0.7v-1.28c0.4,0,2.01,0.02,2.42,0.07c0.63,0.07,0.68,0.26,0.71,0.38c0.07,0.18,0.07,0.33,0.07,0.47
	c0,0.21,0.13,0.3,0.26,0.3c0.18,0,0.3-0.18,0.3-0.45c0-0.1,0.04-0.69,0.07-1.01c0.02-0.33,0.07-0.55,0.1-0.7
	c0.02-0.09,0.03-0.14,0.03-0.19c0-0.19-0.13-0.28-0.25-0.28c-0.11,0-0.19,0.08-0.28,0.18l-0.07,0.07c-0.12,0.12-0.3,0.14-0.71,0.18
	c-0.26,0.03-1.53,0.04-2.66,0.04v-0.01v-4.3v-0.01c0.38,0,2.03,0.02,2.28,0.05c0.89,0.11,0.98,0.22,1.05,0.39
	c0.06,0.15,0.08,0.38,0.08,0.5c0,0.33,0.22,0.36,0.28,0.36c0.16,0,0.26-0.14,0.3-0.29c0.03-0.13,0.05-0.45,0.07-0.73
	c0.01-0.15,0.02-0.27,0.03-0.33c0.02-0.26,0.06-0.43,0.09-0.55c0.02-0.08,0.04-0.15,0.04-0.21c0-0.22-0.12-0.3-0.23-0.3
	c-0.08,0-0.14,0.03-0.2,0.05c-0.02,0.01-0.04,0.02-0.05,0.02l-0.1,0.02c-0.15,0.02-0.39,0.06-0.63,0.08c-0.21,0.01-1.45,0.01-3.69,0
	l-0.21,0c-0.02,0-0.11,0-0.24-0.01c-0.38-0.01-1.1-0.03-1.66-0.03c-0.27,0-0.41,0.1-0.41,0.28c0,0.14,0.14,0.28,0.28,0.28
	c0.14,0,0.41,0.02,0.54,0.04c0.43,0.06,0.5,0.22,0.54,0.74c0.04,0.5,0.04,0.94,0.04,3.4v2.79c0,1.54,0,2.76-0.09,3.4l-0.01,0.06
	c-0.07,0.46-0.11,0.62-0.29,0.65c-0.06,0.01-0.13,0.02-0.19,0.03c-0.1,0.02-0.21,0.04-0.29,0.04c-0.18,0-0.28,0.15-0.28,0.28
	c0,0.11,0.05,0.28,0.41,0.28c0.21,0,0.52-0.01,0.96-0.04c0.35-0.02,0.66-0.02,0.7-0.02c0.25,0,0.67,0,1.35,0.04l0.38,0.01
	c0.65,0.02,1.46,0.04,2.48,0.04c0.63,0,0.92,0,1.06-0.52c0.1-0.35,0.23-1.44,0.23-1.57C213.91,39.95,213.72,39.91,213.64,39.91
	 M232.64,41.79c-0.16,0-0.57,0-1.01-0.14c-0.53-0.18-0.67-0.83-0.73-1.51l-1.12-9.72c-0.06-0.46-0.25-0.56-0.39-0.56
	c-0.23,0-0.34,0.22-0.4,0.35l-4.63,9.53l-4.81-9.55c-0.14-0.28-0.36-0.33-0.47-0.33c-0.18,0-0.31,0.16-0.34,0.42l-1.19,10.33
	l-0.02,0.15c-0.07,0.57-0.13,0.92-0.49,0.98l-0.06,0.01c-0.2,0.03-0.3,0.05-0.4,0.05c-0.18,0-0.32,0.12-0.32,0.26
	c0,0.11,0.06,0.3,0.43,0.3c0.29,0,0.71-0.02,1.01-0.04c0.17-0.01,0.31-0.02,0.36-0.02c0.04,0,0.14,0.01,0.28,0.01
	c0.33,0.02,0.82,0.04,1.24,0.04c0.37,0,0.45-0.16,0.45-0.3c0-0.15-0.15-0.26-0.28-0.26c-0.12,0-0.35-0.02-0.6-0.09
	c-0.27-0.06-0.27-0.24-0.27-0.3c0-0.26,0-0.55,0.02-0.79l0.59-6.71c0.3,0.63,0.83,1.71,1.27,2.62c0.26,0.52,0.49,1,0.64,1.31
	c0.4,0.84,1.48,2.87,1.92,3.68c0.32,0.59,0.44,0.81,0.69,0.81c0.25,0,0.37-0.22,0.71-0.92l3.74-7.66l0.74,7.54
	c0.03,0.23,0.01,0.36,0,0.4c-0.12,0.04-0.19,0.15-0.19,0.27c0,0.26,0.35,0.3,0.6,0.32c0.61,0.06,2.45,0.09,2.81,0.09
	c0.3,0,0.49-0.12,0.49-0.3C232.92,41.9,232.8,41.79,232.64,41.79 M246.57,41.79c-0.12,0-0.36-0.01-0.61-0.09
	c-0.28-0.09-0.7-0.22-1.3-1.65c-0.52-1.25-1.48-3.61-2.33-5.69c-0.78-1.93-1.46-3.59-1.6-3.92c-0.03-0.07-0.06-0.14-0.09-0.2
	c-0.12-0.26-0.21-0.47-0.44-0.47c-0.23,0-0.34,0.21-0.53,0.71l-3.86,9.91c-0.32,0.82-0.62,1.28-1.26,1.36
	c-0.12,0.02-0.36,0.04-0.46,0.04c-0.16,0-0.3,0.13-0.3,0.28c0,0.19,0.16,0.28,0.47,0.28c0.45,0,0.97-0.03,1.31-0.04
	c0.17-0.01,0.29-0.01,0.35-0.01c0.07,0,0.26,0.01,0.49,0.02c0.34,0.02,0.75,0.04,0.98,0.04c0.36,0,0.39-0.2,0.39-0.28
	c0-0.14-0.08-0.28-0.32-0.28h-0.15c-0.15,0-0.4-0.04-0.4-0.27c0-0.25,0.08-0.62,0.23-1.01l0.93-2.53c0.01-0.02,0.02-0.03,0.02-0.03
	l3.79,0l1.47,3.63c0.03,0.06,0.03,0.11,0.02,0.15c-0.02,0.05-0.07,0.07-0.08,0.08l-0.04,0.02c-0.06,0.03-0.16,0.07-0.16,0.23
	c0,0.23,0.27,0.24,0.6,0.26l0.12,0.01c0.73,0.02,1.66,0.04,2.59,0.04c0.46,0,0.53-0.18,0.53-0.28
	C246.93,41.9,246.78,41.79,246.57,41.79 M241.51,36.98h-3.07l1.49-4.23L241.51,36.98z M256.18,29.96c-0.05,0-0.13,0.01-0.24,0.03
	c-0.07,0.01-0.15,0.03-0.25,0.04c-0.34,0.05-0.72,0.07-1.15,0.07h-6.18c-0.18,0-0.8-0.02-1.27-0.07c-0.26-0.03-0.41-0.09-0.53-0.13
	c-0.08-0.03-0.15-0.06-0.22-0.06c-0.15,0-0.22,0.17-0.3,0.36l-0.02,0.07c-0.01,0.04-0.05,0.24-0.1,0.48
	c-0.17,0.76-0.25,1.15-0.25,1.25c0,0.17,0.14,0.28,0.27,0.28c0.16,0,0.26-0.09,0.3-0.23c0.02-0.03,0.03-0.07,0.05-0.1
	c0.03-0.09,0.08-0.19,0.21-0.38c0.2-0.31,0.56-0.42,1.53-0.43l2.21-0.03v6.49c0,1.55,0,2.77-0.07,3.41
	c-0.06,0.5-0.15,0.68-0.37,0.73c-0.18,0.05-0.34,0.07-0.45,0.07c-0.19,0-0.28,0.13-0.28,0.26c0,0.19,0.14,0.28,0.41,0.28
	c0.35,0,1.02-0.03,1.42-0.04c0.15-0.01,0.25-0.01,0.27-0.01c0.02,0,0.1,0,0.21,0.01c0.37,0.02,1.14,0.05,1.82,0.05
	c0.38,0,0.41-0.22,0.41-0.28c0-0.17-0.11-0.28-0.28-0.28c-0.14,0-0.5-0.04-0.72-0.07c-0.39-0.06-0.45-0.25-0.5-0.7
	c-0.07-0.64-0.07-1.86-0.07-3.41v-6.49l1.89,0.03c1.53,0.04,1.78,0.38,1.83,0.74l0.02,0.16c0.01,0.15,0.04,0.42,0.28,0.42
	c0.15,0,0.3-0.13,0.3-0.36c0-0.07,0.01-0.28,0.02-0.53c0.02-0.42,0.04-0.97,0.04-1.27C256.41,30.22,256.41,29.96,256.18,29.96
	 M262.76,41.79c-0.13,0-0.47-0.03-0.72-0.07c-0.36-0.06-0.41-0.23-0.47-0.7c-0.07-0.64-0.07-1.86-0.07-3.41v-2.79
	c0-2.46,0-2.9,0.02-3.4c0.04-0.54,0.11-0.66,0.45-0.74c0.17-0.03,0.27-0.03,0.38-0.03c0.14,0,0.28-0.14,0.28-0.28
	c0-0.19-0.14-0.28-0.41-0.28c-0.36,0-1.02,0.02-1.39,0.03c-0.14,0-0.23,0.01-0.25,0.01c-0.03,0-0.13,0-0.28-0.01
	c-0.37-0.01-0.99-0.03-1.38-0.03c-0.27,0-0.41,0.1-0.41,0.28c0,0.13,0.12,0.28,0.28,0.28c0.1,0,0.3,0.02,0.47,0.05
	c0.24,0.05,0.36,0.17,0.4,0.72c0.04,0.5,0.04,0.94,0.04,3.4v2.79c0,1.21-0.01,2.69-0.09,3.41c-0.06,0.49-0.11,0.66-0.31,0.71
	c-0.13,0.03-0.33,0.07-0.47,0.07c-0.18,0-0.28,0.15-0.28,0.28c0,0.11,0.05,0.28,0.41,0.28c0.35,0,0.97-0.03,1.33-0.04
	c0.15-0.01,0.26-0.01,0.29-0.01c0.01,0,0.08,0,0.18,0.01c0.35,0.01,1.16,0.05,1.87,0.05c0.38,0,0.41-0.22,0.41-0.28
	C263.04,41.93,262.94,41.79,262.76,41.79 M276.17,39.18c-0.24,0-0.28,0.19-0.32,0.35c-0.05,0.26-0.26,0.91-0.59,1.24
	c-0.59,0.59-1.34,0.7-2.59,0.7c-3.22,0-5.75-2.45-5.75-5.58c0-1.41,0.17-2.87,1.42-4.02c0.76-0.71,1.93-1.06,3.58-1.06
	c1.29,0,2.52,0.33,3.13,0.84c0.38,0.3,0.63,0.88,0.63,1.46c0,0.17,0,0.49,0.28,0.49c0.11,0,0.31-0.06,0.34-0.48
	c0.01-0.13,0.02-0.43,0.02-0.79c0-0.29,0.01-0.6,0.02-0.83c0.02-0.32,0.04-0.52,0.06-0.66c0.01-0.11,0.02-0.18,0.02-0.24
	c0-0.1-0.04-0.32-0.35-0.32c-0.45-0.01-0.88-0.1-1.38-0.19l-0.28-0.05c-0.85-0.14-1.8-0.19-2.41-0.19c-2.21,0-3.88,0.57-5.1,1.74
	c-1.39,1.36-1.89,3.18-1.89,4.43c0,2.02,0.69,3.64,2.05,4.81c1.36,1.18,3.11,1.73,5.5,1.73c0.63,0,2.17-0.04,3.02-0.36
	c0.33-0.13,0.4-0.23,0.5-0.56c0.17-0.54,0.4-1.94,0.4-2.08C276.47,39.38,276.35,39.18,276.17,39.18 M290.02,41.79
	c-0.12,0-0.36-0.01-0.6-0.09c-0.28-0.09-0.7-0.22-1.3-1.65c-0.52-1.25-1.48-3.61-2.33-5.69c-0.78-1.93-1.46-3.59-1.6-3.92
	c-0.03-0.07-0.06-0.14-0.09-0.2c-0.12-0.26-0.21-0.47-0.44-0.47c-0.23,0-0.33,0.21-0.53,0.71l-3.85,9.91
	c-0.32,0.82-0.62,1.28-1.26,1.36c-0.13,0.02-0.36,0.04-0.46,0.04c-0.16,0-0.3,0.13-0.3,0.28c0,0.19,0.16,0.28,0.47,0.28
	c0.45,0,0.97-0.03,1.31-0.04c0.17-0.01,0.29-0.01,0.35-0.01c0.07,0,0.27,0.01,0.49,0.02c0.34,0.02,0.75,0.04,0.98,0.04
	c0.36,0,0.4-0.2,0.4-0.28c0-0.14-0.08-0.28-0.32-0.28h-0.15c-0.15,0-0.41-0.04-0.41-0.27c0-0.25,0.09-0.62,0.23-1.01l0.93-2.53
	c0.01-0.02,0.02-0.03,0.02-0.03l3.79,0l1.47,3.63c0.03,0.06,0.03,0.11,0.02,0.15c-0.02,0.05-0.07,0.07-0.08,0.08l-0.04,0.02
	c-0.06,0.03-0.17,0.07-0.17,0.23c0,0.23,0.27,0.24,0.6,0.26l0.12,0.01c0.73,0.02,1.65,0.04,2.59,0.04c0.46,0,0.53-0.18,0.53-0.28
	C290.38,41.9,290.23,41.79,290.02,41.79 M284.96,36.98h-3.07l1.49-4.23L284.96,36.98z M299.49,39.83c-0.16,0-0.28,0.13-0.32,0.33
	c-0.06,0.32-0.19,0.62-0.36,0.82c-0.33,0.4-0.98,0.43-1.86,0.43c-1.21,0-1.84-0.1-2.07-0.33c-0.27-0.25-0.29-1.47-0.29-3.44v-2.83
	c0-2.46,0-2.9,0.02-3.4c0.04-0.55,0.13-0.68,0.48-0.75c0.18-0.02,0.42-0.04,0.52-0.04c0.13,0,0.28-0.12,0.28-0.26
	c0-0.11-0.05-0.28-0.41-0.28c-0.36,0-1.11,0.02-1.52,0.03c-0.16,0-0.27,0.01-0.29,0.01c-0.02,0-0.11,0-0.24-0.01
	c-0.37-0.01-1.07-0.03-1.63-0.03c-0.27,0-0.41,0.1-0.41,0.28c0,0.14,0.14,0.28,0.28,0.28c0.14,0,0.41,0.02,0.54,0.04
	c0.43,0.06,0.5,0.22,0.54,0.74c0.04,0.5,0.04,0.94,0.04,3.4v2.79c0,1.54,0,2.76-0.09,3.4l-0.01,0.04c-0.07,0.47-0.11,0.62-0.31,0.67
	c-0.14,0.03-0.33,0.07-0.47,0.07c-0.18,0-0.28,0.15-0.28,0.28c0,0.11,0.05,0.28,0.41,0.28c0.26,0,0.6-0.02,0.96-0.04
	c0.31-0.02,0.59-0.02,0.66-0.02h0c0.37,0,0.79,0.01,1.3,0.02l0.48,0.01c0.78,0.04,1.69,0.06,2.86,0.06c0.86,0,1.04-0.04,1.19-0.54
	c0.13-0.48,0.25-1.45,0.25-1.62C299.75,39.89,299.58,39.83,299.49,39.83 M151.42,53.78l-0.52-0.41c-1.74-1.36-2.21-2-2.21-3.01
	c0-1.2,0.86-2.01,2.14-2.01c1.53,0,2.04,0.63,2.19,0.91c0.1,0.18,0.21,0.66,0.22,0.88c0.02,0.13,0.05,0.38,0.3,0.38
	c0.28,0,0.28-0.38,0.28-0.58c0-0.99,0.05-1.58,0.07-1.83c0-0.07,0.01-0.12,0.01-0.14c0-0.19-0.11-0.28-0.34-0.28
	c-0.13,0-0.26-0.01-0.62-0.09c-0.54-0.13-1.1-0.19-1.77-0.19c-2.4,0-4.01,1.41-4.01,3.51c0,1.28,0.42,2.47,2.48,4.16l0.84,0.69
	c1.64,1.35,2.09,2.05,2.09,3.23c0,1.15-0.86,2.32-2.51,2.32c-0.68,0-2.28-0.17-2.61-1.78c-0.05-0.25-0.05-0.49-0.05-0.66
	c0-0.1,0-0.36-0.28-0.36c-0.26,0-0.29,0.31-0.3,0.44l-0.02,0.22c-0.03,0.38-0.08,1.01-0.08,1.76c0,0.5,0.02,0.67,0.36,0.84l0,0
	c0.71,0.35,1.55,0.52,2.56,0.52c1.14,0,2.14-0.28,2.9-0.81c1.21-0.86,1.65-2.23,1.65-3.22C154.2,56.82,153.74,55.61,151.42,53.78
	 M162.99,49.54c-4.59,0-6.65,3.7-6.65,6.33c0,3.07,2.05,6.37,6.56,6.37c3.83,0,6.73-2.84,6.73-6.61
	C169.62,51.99,166.95,49.54,162.99,49.54 M162.89,50.44c2.36,0,4.74,1.74,4.74,5.64c0,0.87-0.21,5.21-4.28,5.21
	c-3,0-5.02-2.35-5.02-5.84C158.34,52.31,160.04,50.44,162.89,50.44 M182.73,58.87c-0.24,0-0.28,0.19-0.32,0.35
	c-0.05,0.26-0.26,0.91-0.59,1.24c-0.59,0.59-1.34,0.7-2.59,0.7c-3.22,0-5.75-2.45-5.75-5.58c0-1.41,0.17-2.87,1.42-4.02
	c0.76-0.71,1.93-1.06,3.58-1.06c1.29,0,2.51,0.33,3.13,0.84c0.38,0.3,0.63,0.88,0.63,1.46c0,0.17,0,0.49,0.28,0.49
	c0.11,0,0.31-0.06,0.34-0.48c0.01-0.13,0.02-0.43,0.02-0.79c0-0.29,0.01-0.6,0.02-0.83c0.02-0.32,0.04-0.52,0.06-0.66
	c0.01-0.11,0.02-0.18,0.02-0.24c0-0.1-0.04-0.32-0.35-0.32c-0.45-0.01-0.88-0.1-1.38-0.19l-0.28-0.05c-0.85-0.14-1.8-0.19-2.41-0.19
	c-2.21,0-3.88,0.57-5.1,1.74c-1.39,1.36-1.89,3.18-1.89,4.43c0,2.02,0.69,3.64,2.04,4.81c1.36,1.18,3.11,1.73,5.5,1.73
	c0.63,0,2.17-0.04,3.02-0.36c0.33-0.13,0.4-0.23,0.5-0.56c0.17-0.54,0.4-1.94,0.4-2.08C183.03,59.07,182.91,58.87,182.73,58.87
	 M190.23,61.48c-0.13,0-0.47-0.03-0.72-0.07c-0.36-0.06-0.41-0.23-0.47-0.7c-0.07-0.64-0.07-1.86-0.07-3.41V54.5
	c0-2.46,0-2.9,0.02-3.4c0.04-0.54,0.11-0.66,0.45-0.73c0.17-0.03,0.27-0.03,0.38-0.03c0.14,0,0.28-0.14,0.28-0.28
	c0-0.19-0.14-0.28-0.41-0.28c-0.36,0-1.02,0.02-1.39,0.03c-0.14,0-0.23,0.01-0.25,0.01c-0.03,0-0.13,0-0.28-0.01
	c-0.37-0.01-0.99-0.03-1.38-0.03c-0.28,0-0.41,0.1-0.41,0.28c0,0.13,0.12,0.28,0.28,0.28c0.1,0,0.3,0.02,0.47,0.05
	c0.24,0.05,0.36,0.17,0.4,0.72c0.04,0.5,0.04,0.94,0.04,3.4v2.79c0,1.21-0.01,2.7-0.09,3.41c-0.06,0.49-0.11,0.66-0.31,0.71
	c-0.14,0.03-0.33,0.07-0.47,0.07c-0.18,0-0.28,0.15-0.28,0.28c0,0.11,0.05,0.28,0.41,0.28c0.36,0,0.97-0.03,1.33-0.04
	c0.15-0.01,0.26-0.01,0.29-0.01c0.02,0,0.08,0,0.18,0.01c0.35,0.01,1.16,0.05,1.87,0.05c0.38,0,0.41-0.22,0.41-0.28
	C190.52,61.62,190.42,61.48,190.23,61.48 M200.76,59.6c-0.25,0-0.29,0.24-0.32,0.37c-0.09,0.62-0.31,0.83-0.65,0.98
	c-0.4,0.16-1.17,0.16-1.58,0.16c-1.61,0-1.77-0.2-1.8-1.12c-0.01-0.22-0.01-1.24,0-1.99c0-0.29,0-0.55,0-0.7v-1.28
	c0.4,0,2.01,0.02,2.42,0.07c0.63,0.07,0.68,0.26,0.71,0.38c0.07,0.18,0.07,0.33,0.07,0.47c0,0.21,0.13,0.3,0.26,0.3
	c0.18,0,0.3-0.18,0.3-0.45c0-0.1,0.04-0.69,0.07-1.01c0.02-0.33,0.07-0.55,0.1-0.7c0.02-0.09,0.03-0.14,0.03-0.19
	c0-0.19-0.13-0.28-0.25-0.28c-0.11,0-0.19,0.08-0.28,0.18l-0.07,0.07c-0.12,0.12-0.3,0.14-0.71,0.18c-0.26,0.03-1.53,0.04-2.66,0.04
	v-0.01v-4.3v-0.01c0.38,0,2.04,0.02,2.28,0.05c0.89,0.11,0.98,0.22,1.05,0.39c0.06,0.15,0.08,0.38,0.08,0.5
	c0,0.33,0.22,0.36,0.28,0.36c0.16,0,0.26-0.14,0.3-0.29c0.03-0.13,0.05-0.45,0.07-0.73c0.01-0.15,0.02-0.27,0.03-0.33
	c0.02-0.26,0.06-0.43,0.09-0.55c0.02-0.08,0.04-0.15,0.04-0.21c0-0.22-0.12-0.3-0.23-0.3c-0.08,0-0.14,0.03-0.2,0.05
	c-0.02,0.01-0.04,0.02-0.05,0.02l-0.1,0.02c-0.15,0.02-0.39,0.06-0.63,0.08c-0.21,0.01-1.45,0.01-3.69,0l-0.21,0
	c-0.02,0-0.11,0-0.24-0.01c-0.38-0.01-1.1-0.03-1.66-0.03c-0.27,0-0.41,0.1-0.41,0.28c0,0.14,0.14,0.28,0.28,0.28
	c0.14,0,0.41,0.02,0.54,0.04c0.43,0.06,0.5,0.22,0.54,0.74c0.04,0.5,0.04,0.94,0.04,3.4v2.79c0,1.54,0,2.76-0.09,3.4l-0.01,0.06
	c-0.07,0.46-0.11,0.62-0.29,0.65c-0.06,0.01-0.13,0.02-0.19,0.03c-0.1,0.02-0.21,0.04-0.29,0.04c-0.18,0-0.28,0.15-0.28,0.28
	c0,0.11,0.05,0.28,0.41,0.28c0.22,0,0.52-0.01,0.96-0.04c0.35-0.02,0.66-0.02,0.7-0.02c0.25,0,0.67,0,1.35,0.04l0.38,0.01
	c0.65,0.02,1.46,0.04,2.48,0.04c0.63,0,0.92,0,1.06-0.52c0.1-0.35,0.23-1.44,0.23-1.57C201.02,59.63,200.84,59.6,200.76,59.6
	 M213.08,49.65c-0.05,0-0.13,0.01-0.24,0.03c-0.07,0.01-0.15,0.03-0.25,0.04c-0.34,0.05-0.72,0.07-1.15,0.07h-6.18
	c-0.18,0-0.8-0.02-1.27-0.07c-0.26-0.03-0.41-0.09-0.53-0.13c-0.08-0.03-0.15-0.06-0.22-0.06c-0.15,0-0.22,0.18-0.3,0.36l-0.02,0.07
	c-0.01,0.04-0.05,0.24-0.1,0.48c-0.17,0.76-0.25,1.15-0.25,1.25c0,0.17,0.14,0.28,0.27,0.28c0.16,0,0.26-0.09,0.3-0.23
	c0.02-0.03,0.03-0.07,0.05-0.1c0.04-0.09,0.08-0.19,0.21-0.38c0.2-0.31,0.56-0.42,1.53-0.43l2.21-0.03v6.49c0,1.55,0,2.77-0.07,3.41
	c-0.06,0.49-0.15,0.68-0.37,0.73c-0.18,0.05-0.34,0.07-0.45,0.07c-0.19,0-0.28,0.13-0.28,0.26c0,0.19,0.14,0.28,0.41,0.28
	c0.35,0,1.02-0.03,1.42-0.05c0.15-0.01,0.25-0.01,0.27-0.01c0.02,0,0.1,0,0.21,0.01c0.37,0.02,1.14,0.05,1.82,0.05
	c0.38,0,0.41-0.22,0.41-0.28c0-0.17-0.11-0.28-0.28-0.28c-0.14,0-0.5-0.04-0.72-0.07c-0.39-0.06-0.45-0.25-0.51-0.7
	c-0.07-0.64-0.07-1.86-0.07-3.41V50.8l1.89,0.03c1.53,0.04,1.78,0.38,1.83,0.74l0.02,0.16c0.01,0.15,0.03,0.42,0.28,0.42
	c0.15,0,0.3-0.13,0.3-0.36c0-0.07,0.01-0.28,0.02-0.53c0.02-0.42,0.04-0.97,0.04-1.27C213.31,49.91,213.31,49.65,213.08,49.65
	 M225.82,49.77c-0.2,0-0.74,0.01-1.14,0.03c-0.24,0.01-0.42,0.01-0.46,0.01c-0.05,0-0.14,0-0.27-0.01
	c-0.24-0.01-0.58-0.03-0.86-0.03c-0.36,0-0.41,0.15-0.41,0.25c0,0.15,0.14,0.28,0.35,0.33c0.08,0.03,0.15,0.06,0.15,0.26
	c0,0.2-0.08,0.44-0.26,0.74c-0.09,0.16-0.35,0.59-0.67,1.13c-0.65,1.1-1.52,2.55-1.89,3.22l-2.84-4.7l-0.02-0.05
	c-0.1-0.18-0.18-0.33-0.18-0.5c0-0.03,0-0.07,0.11-0.12c0.18-0.07,0.36-0.15,0.36-0.31c0-0.26-0.28-0.26-0.38-0.26
	c-0.45,0-0.91,0.02-1.19,0.03c-0.11,0-0.19,0.01-0.22,0.01c-0.02,0-0.17,0-0.37-0.01c-0.41-0.01-1.04-0.03-1.25-0.03
	c-0.31,0-0.36,0.17-0.36,0.26c0,0.16,0.15,0.3,0.32,0.3c0.1,0,0.39,0.07,0.6,0.2c0.26,0.18,0.64,0.51,1.04,1.11
	c0.56,0.83,2.77,4.34,2.9,4.59c0.23,0.42,0.33,0.71,0.33,1.55v1.36c0,0.25,0,0.93-0.04,1.57c-0.04,0.52-0.18,0.66-0.37,0.7
	c-0.18,0.05-0.34,0.07-0.45,0.07c-0.18,0-0.28,0.15-0.28,0.28c0,0.19,0.14,0.28,0.41,0.28c0.35,0,1-0.03,1.35-0.05
	c0.14-0.01,0.23-0.01,0.25-0.01c0.02,0,0.1,0,0.22,0.01c0.38,0.02,1.16,0.05,1.85,0.05c0.31,0,0.41-0.15,0.41-0.28
	c0-0.14-0.1-0.28-0.28-0.28c-0.14,0-0.5-0.04-0.72-0.07c-0.35-0.05-0.47-0.22-0.51-0.7c-0.06-0.65-0.06-1.32-0.06-1.57v-1.36
	c0-0.09,0-0.18,0-0.28c-0.01-0.42-0.02-0.81,0.19-1.24c0.34-0.67,2.65-4.39,3.17-5c0.35-0.43,0.49-0.58,0.78-0.75
	c0.22-0.13,0.51-0.18,0.69-0.18c0.22,0,0.36-0.17,0.36-0.32C226.18,49.86,226.04,49.77,225.82,49.77"/>
</svg>
