<svg height="16" viewBox="0 0 23 16" width="23" xmlns="http://www.w3.org/2000/svg"><path d="m10.3125 1.9375c-3.40625.28125-5.78125 2.28125-5.78125 4.84375 0 2.15625 1.5 3.5625 3.78125 4.03125 0 2.65625-1.65625 5.03125-4.21875 5.03125-2.28125 0-4.03125-1.875-4.03125-5.21875 0-5.78125 4.40625-10.25 10.65625-10.46875zm12.21875 0c-3.40625.28125-5.78125 2.28125-5.78125 4.84375 0 2.15625 1.5 3.5625 3.78125 4.03125-.03125 2.65625-1.65625 5.03125-4.25 5.03125-2.25 0-4.03125-1.875-4.03125-5.21875 0-5.78125 4.4375-10.25 10.6875-10.46875z" fill="#3c3c43" fill-opacity=".3" fill-rule="evenodd"/></svg>