<svg height="25" viewBox="0 0 50 25" width="50" xmlns="http://www.w3.org/2000/svg"><path d="m15.3673704.03298391c3.7785134-.19887343 6.9960331.49119149 9.1273741 2.35258849 2.6734451 2.33483408 2.5066272 6.46633564.4492211 10.4315301-.508648.9802938-1.1288082 1.9677349-1.8483812 2.9601434l-.096687.1320988-.0976042.1308813-.1009683.1312329.095195-.0375682c.2187955-.0881058.4532228-.1901288.7178151-.3110554l.1348771-.0620617 1.0360369-.4877009c.0442722-.0204762.0879443-.0405265.1344312-.0617375.5860991-.2396383 1.7230758-.8540035 2.1255886-1.1387643.205701-.1461521.3900571-.307344.656752-.5681809l.496132-.4925154c.4915441-.4778671.9534599-.9421861 1.3926087-1.4010974l.1576933-.1671208c.0536071-.0575278.1084501-.117073.1651094-.1792252l.2720829-.3022438.5868827-.6605543c.3864319-.43107799.6492495-.70864449.9405712-.98753524l.2032227-.19021252c.0492903-.04503916.104133-.09443932.1736199-.15653947l.3407293-.30447693c.3286672-.29758553.6741373-.44282394 1.0357951-.33269848.2711543.08253014.4952978.26408059.53342.52457574.0295074.2020371-.0445824.35864506-.2010623.53769837l-.0551814.06057295-.2011303.21006657c-.4437292.45939511-.8997525.89629951-1.635702 1.57838791l-1.2576437 1.1638845-1.1133231 1.0219654c-.369539.3362071-.6231155.557508-.9058896.7890045l-.1822616.1473743c-.2422203.1948688-.361481.3066143-.4624785.44775-.094424.1318894-.1730961.2724141-.2691061.4756694l-.1417518.3131403c-.1463163.3289233-.2239916.5879418-.2354017.8315906-.0113055.2400586.1109162.382675.4122693.4940039.2815217.1040832.5926119.1475655.9872248.148676l.2100058-.0029557c.0592124-.0016934.1198396-.0041229.1923193-.0076731l.3631727-.0201447c1.0525227-.0598975 2.0405475-.1351043 2.9913082-.2297706l.7738224-.0816464 1.1179465-.1263633c2.2508681-.2563362 4.3579922-.4694812 6.38753-.6429141l.4900483-.0398934c.4773971-.0367709.9192367-.0642373 1.3470827-.0829678l.4457317-.0174328c1.1387098-.0392622 2.2912471-.0383283 3.84306-.005221l1.1834816.0283953.5189063.004333c.1839559.0028398.3348168.0092222.4799345.0217276.1141683.0097782.2171178.0224706.3156859.0397224.2056521.035867.3572415.0979814.4733146.2317193.1843825.2128228.1897418.5152608-.1042428.6486555-.1881736.0852506-.3550084.1023743-.6853354.1028376l-.1085097-.0016586-.3775325-.018008-.0274621-.0007969c-.6783205-.017419-1.383101-.0264426-2.137351-.0282284-1.4244013-.0034035-2.8364785.0222156-4.2360925.0773469-2.747728.108226-5.5343989.3172617-8.3643291.6241131-.9544245.1037168-1.9109641.2168947-2.8696098.3394707l-1.4691882.1928971c-.1277449.0157165-.2307105.0268136-.3384211.0364796l-.0543874.0047285c-.6452277.0543638-1.1644461.0174023-1.6599317-.1509175-.2341829-.0794551-.4455882-.18827-.6373322-.3362847-.5419288-.4687076-.6147492-1.1822684-.3849714-2.0080514l.0279518-.0965006-.3602791.1906296-.4607089.2491828-.5972253.3354039c-.1971047.1085423-.3354195.179049-.4962199.2527993l-.3897268.1773737c-.6499507.2931039-1.0865629.4736296-1.5569363.6370267l-.0886509.0304596c-.3272994.1112577-.599499.1945241-.8589575.2584689l-.1482519.0342599-.1250104.1283083c-1.1744631 1.1874035-2.5179941 2.1983745-4.0668388 3.0691178l-.2462659.1363257-.2377405.1276962c-1.6988152.8992871-3.5747488 1.5751658-5.5991519 2.0390285-1.83912274.4213984-3.65047469.5146643-5.27697291.2210968l-.18684357-.0355932-.18471639-.039112-.03077951.0613319c-.14935772.2964759-.28742468.5818945-.41595733.8608489l-.09463926.2080756-.09122857.2060821c-.11872025.2719994-.55780818.4017095-.81726655.2694926-.29291532-.1489901-.40125692-.4945758-.30756712-.8057836l.07819694-.2522243.21737613-.6701541.09268551-.2983356-.14431795-.0594572c-.50535245-.2150041-.97868267-.4780026-1.41743693-.7902977l-.16290711-.119424-.14382019-.1114456c-.64512073-.5130748-1.18607489-1.1383368-1.60691056-1.8568527-1.01271401-1.8330874-.89723285-4.0870336-.0183093-6.9147201.01619337-.0521335.02005149-.1299258.01251599-.2529048l-.01521264-.1794329-.01510731-.1677522c-.00697885-.0911868-.00795639-.1483204-.00403712-.2148574.01703064-.2890235.05908333-.5898777.12356064-.9009481.11216975-.5411857.3021609-1.0936843.56964238-1.69355948 1.23334759-2.76607325 3.34585634-5.18051873 6.01004704-6.93279383.71834343-.47249243 1.47465284-.89392155 2.25992859-1.25967679 1.1645862-.54228655 2.411675-.94039784 3.7035702-1.18607976.6812341-.12953015 1.3616538-.2134457 2.021786-.24814803zm-2.2585752 1.28960828c-1.3574485.30197045-2.7506715.8344406-4.07324685 1.54127548-2.06944197 1.1060544-3.8883678 2.77942261-5.31144408 4.83282217-.41410114.59745693-.79055163 1.22117485-1.12669978 1.86652255-.10306216.19784985-.20171287.39701434-.29585635.59736171l-.1383554.3024073.06304113-.0760296.14729999-.1697547c1.48057-1.75178767 3.21528436-3.25978529 5.12795414-4.44549331.72392935-.44876074 1.2999205-.76699445 1.87141801-1.01538262.46375803-.20170109.76875339-.27894902 1.13890579-.24113904.2320884.02365712.4504983.09191173.6009722.20838905.2278729.17638961.2776444.44635443.1099321.72184776-.1311384.2155846-.3134126.30837371-.636407.38378494l-.2318182.0502575c-.0533021.01206612-.0905829.02185652-.1239044.03267178l-.0244372.00835518c-1.92444374.69137685-3.70239742 1.88693712-5.35149492 3.51055868-.50571246.49787657-.97676426 1.02875408-1.40950196 1.58847098l-.8031405 1.0590643-.05264676.0710587c-.39162556.5345555-.66181981.9755653-.83192671 1.3928033-.151869.3725041-.21191005.7045556-.17335241.996713.0173647.1315094.05573223.2404911.15559773.4564411l.09509405.2042735c.07201683.1586776.10823971.2564312.13915897.3813091.07240714.2923177.01734623.7823707-.2667032.8870658-.17362709.0639031-.32777944-.0056603-.42560913-.1452411-.03453554-.0492744-.05813358-.0955055-.08686317-.1679727l-.08120563-.2167624-.00170445.0037697c-.0190586.0426257-.03750518.1013922-.0535091.1722865l-.01151634.0553819-.01491542.0852895c-.01281908.0822442-.02036278.1625386-.0317537.3055555-.0913578 1.1469191.1564657 2.29497.71591468 3.2232704.57932126.9611788 1.50501272 1.6392207 2.71668877 2.051195l.03464555.0114628.04038598-.1538833.07420035-.2618857c.00026678-.0009223.0184646-.0839087.02863326-.1202878.05343429-.1911646.14309156-.3208411.35140851-.3159629.20436936.0047017.32618636.188625.3432179.3817697.00430845.0485626.0049889.0900086.00205156.1394457l-.00564844.0641614.68696484-1.2900774c.22690933-.4282356.37336247-.7135616.52625222-1.026678l.16802925-.3418973c.14707987-.2936776.30192231-.5867235.5186176-.9837303l.79676777-1.4481.26324224-.4958469.0676213-.131943c.09376376-.1832844.1645853-.3176036.26504107-.4986568l.10446369-.1863496 1.09513658-1.9997825-.05273542-.0003653c-.57628203.00391-1.15101352.2192765-1.70445237.6110326l-.10351544.0755128c-.25319217.1901997-.50154333.4134085-.77092785.6870676-.09669321.0982377-.18973771.2027733-.27936776.3135698l-.16729926.2177031c-.12952817.160012-.25785756.2492983-.44553741.2038905-.03036119-.0073456-.05949099-.0188196-.08694005-.034084-.20193125-.1123101-.23000859-.3232313-.18308313-.6037858.02547077-.1522827.07924809-.3297363.12467106-.4353707.13367313-.310435.34842881-.590013.65556247-.8905852.47435356-.4640792 1.09098408-.8098242 1.79746234-1.0325177.32871269-.1036259.67161878-.1789233 1.02410647-.2259863.1134338-.0151613.22757597-.0273069.34227111-.0364415l.20229971-.0124791.2208437.0083272.0794872.0015597.0179246-.0004027.0091199-.0116001c.2105272-.2778529.4473106-.5299641.6844889-.6956739l.0790386-.0519533c.4738498-.2914943.91317-.1677991 1.1230759.4161544l.0216031.0643297.0249406.0796061-.0323108.0770044c-.067279.1603418-.1609938.2357863-.3519626.3276293l-.1338343.0630878-.0158794.0079956.2286448.0972021c.5810135.275493.9901081.5511542 1.328555.9331975.5354414.6043596.6124675 1.2573036.3450285 2.0887538l-.0264318.0789057.042947-.006972c.4768398-.0960763 1.0100912-.6123842 1.5372621-1.3722201l.1855476-.276823.317804-.4908316c.0759384-.1156918.1364978-.2051969.1970322-.2907286l.2237608-.3067923c.0720605-.096775.1413295-.1862729.211001-.2713333.0603335-.0736598.118706-.1411471.1750954-.2018239.2357969-.2537252.4144686-.3827897.6194102-.3526148.5964836.0880164.9281135.4473613.7072134 1.0042203-.131059.3305779-.3658711.6656516-.6566098.9649861-.0733002.075483-.1515524.1516549-.2452666.2393629l-.3313472.3036371c-.4747581.433741-.7162747.6991946-.8961833 1.0274544-.1411063.2575507-.2078409.5420186-.1897733.8192489.0103898.1601343.0452521.2187085.1789736.303365l.1861794.1096788c.0441454.0264396.0839478.0517325.1217262.0777526l.0984703.0716191c.1685781.1271305.251314.2802301.1282508.4820322-.0849761.1391058-.2772287.2069701-.435477.205081-.0549486-.00075-.1099302-.0103463-.1696392-.0268247l-.0644027-.0197615-.0915123-.0324937c-.0922271-.0331649-.1818042-.0771513-.2692001-.1311159-.3591602-.2222474-.4830898-.4650669-.5653753-.9754797l-.03299-.2255984-.1099779.0661119c-2.8689443 1.7137756-4.6115438 2.5553497-6.63971289 3.0483151l-.20676711.0485214-.02744329.0416606-.04234469.0698786-.05023903.0888588-.17047855.3182126-1.24352499 2.2536287-.08592956.1575207.10144938.0128094c1.23291969.1412605 2.5875436.0799044 3.87093013-.1463572l.2257012-.0416327c2.1579567-.4158735 4.3889751-1.3461425 6.7781923-2.7301881.6105115-.3535358 1.1991795-.7263701 1.7646436-1.1184094.2271452-.1574843.4489232-.3218532.665464-.4931006l.1853071-.1498697-.0069919-.0062248c-.0756898-.0716685-.1395371-.1573663-.1903478-.2564973l-.0289125-.0610858c-.0188941-.0433346-.0801353-.2435923-.0846616-.2569687l-.0302014-.0800341-.0066644.0053626c-.0234585.0190555-.0512802.0448818-.0835208.0777744l-.1328155.143148-.0578168.0596185c-.0176315.0171575-.0340949.0319807-.0508084.0456129-.3126796.2550683-.6366451.4193572-.9725472.4573199-.5014767.0566147-.9669645-.1720989-1.0217609-.65004-.0355022-.3101433.0453322-.6626701.2039862-.9727155.1223185-.2392522.2723128-.4486336.5218221-.7481394l.2664907-.3149362c.6560846-.7812022 1.3241674-1.4257486 2.0428334-1.9457633.4279265-.3095285.6990302-.4075898 1.1336624-.3446038.175046.0252963.3176564.0905601.3921013.2166916.1083094.1835082.0198572.3671372-.1690403.4979425l-.3728174.2594319.0111949-.0016153c.3992621-.0380065.741028.4423362.5651713.8026528l-.0200574.0368198-.0681148.1091281c-.0236719.0366374-.049321.0750965-.0799781.1200582l-.1623586.2334089-.3655179.5019882-.193343.2781985c-.1673462.2486573-.2723107.4432984-.3254786.6227772-.0160402.0541469-.0266767.1054396-.0318671.1539116-.0107763.100493-.0011064.1195636.0286698.1321844.0419248.01777.1143783.0237855.2174547.016899l.0338973-.0031176.1284783-.1281844c.2458091-.2508851.4839171-.512917.7146284-.7861356l.1716513-.2070122c.4091066-.5024524.793894-1.0406156 1.1560995-1.6150023l.1641072-.2652375.3976673-.6565669c.4106234-.6824468.652196-1.1034892.9092605-1.5887663l.0368488-.0697975c1.3713609-2.60653671 1.5128749-5.53058247.0320421-7.43838196-.6749514-.86958745-1.6684513-1.56491345-2.87666-2.06859362-.5981184-.24926169-1.2325426-.43371926-1.9190777-.56281666-2.2406523-.42140796-4.4777425-.42431728-6.5147168.02885363zm-1.8999825 11.96448571-.0245284.0341198c-.4121666.5733666-.7538463 1.1323969-1.28971545 2.0873627l-.51729901.9291576-.5123469.8881891-.07693599.1221021c-.02797947.0439474-.04940188.080459-.06515753.1110757l-.01204513.024721.01959-.0039552.03977576-.0101276.04364242-.0128575c.04833639-.0151445.10052439-.0341825.15634191-.056685l.23041488-.1005053c.49547942-.2129948.98231934-.4542562 1.69515984-.8301961.5773123-.3046181.9993917-.5903555 1.3361894-.9294245.2132396-.2147657.3732998-.4373987.4749307-.6703318.3105678-.7125045-.4018624-1.3537292-1.4115836-1.5656248zm9.4662837.6995651-.0768584.0593714c-.3994427.3142984-.7833138.6780753-1.1327182 1.0714046-.1828394.2058075-.3493692.4104039-.5005552.6162861l-.1933045.2661749.0376044-.0263858c.1284225-.0939268.2567684-.2001242.3904193-.3218415l.1013169-.0942487.1419554-.1385045c.2012866-.2020883.3956587-.4228897.7050415-.7915242l.4556629-.545652.0407819-.0520519z" fill="#3c3c43" fill-opacity=".6" fill-rule="evenodd"/></svg>