<svg xmlns="http://www.w3.org/2000/svg" width="100%" height="100%" viewBox="0 0 460 344"><path fill-rule="evenodd" d="M460 171.73c0-36.83-13.25-73.25-36.25-102.55C400.63 39.7 368.63 18.9 332 8.95c-17.41-4.73-34.9-6.85-52.84-7.85A847.58 847.58 0 0 0 238.28 0h-16.56c-1.26 0-21.74.03-40.87 1.1-17.94 1-35.43 3.12-52.83 7.85C91.37 18.9 59.37 39.7 36.25 69.18 13.25 98.48 0 134.9 0 171.73v.54c0 36.83 13.25 73.25 36.25 102.55 23.12 29.48 55.12 50.27 91.77 60.23 17.4 4.73 34.89 6.85 52.83 7.85a847.58 847.58 0 0 0 40.87 1.1h16.56c1.26 0 21.73-.03 40.87-1.1 17.94-1 35.43-3.12 52.84-7.85 36.64-9.96 68.64-30.75 91.76-60.23 23-29.3 36.25-65.72 36.25-102.55V172v-.27z"/></svg>
