<svg viewBox="0 0 283.46 283.46" xmlns="http://www.w3.org/2000/svg"><path d="m141.73 0a141.73 141.73 0 1 0 141.73 141.73 141.74 141.74 0 0 0 -141.73-141.73zm0 278.49a136.76 136.76 0 1 1 136.76-136.76 136.76 136.76 0 0 1 -136.76 136.76z"/><path d="m141.73 5a136.76 136.76 0 1 0 136.76 136.73 136.76 136.76 0 0 0 -136.76-136.73zm0 261.09a124.33 124.33 0 1 1 124.33-124.36 124.32 124.32 0 0 1 -124.33 124.33z" fill="#fff"/><circle cx="141.73" cy="141.73" fill="#ff7d13" r="124.33" transform="matrix(.70710678 -.70710678 .70710678 .70710678 -58.71 141.73)"/><g fill="#fff"><path d="m114 90.43v99.48h-18.08v-56.91c0-9.43 0-12.23-8.11-12.23h-16.21v-11.33h1.91c9.29-.14 21.82-.29 25.8-19z"/><path d="m198 174.59v15.32h-67.62v-14.29c12.67-8.7 25.2-20.64 31.09-26.68 5.46-5.6 14.59-15.18 14.59-28.3 0-7.66-3.82-14.88-13.11-14.88-14.59 0-14.15 15.92-14 23l-18.57-1.62c0-14 4.57-23 8.4-27.56 5.45-6.34 14.88-10.76 25.64-10.76 18.87 0 32 12.23 32 31.1 0 16.06-9.87 27.56-20.77 37.43-2.22 1.92-15.48 13.12-21.08 17.25z"/></g></svg>