<svg viewBox="0 0 318.19 283.46" xmlns="http://www.w3.org/2000/svg"><g transform="translate(-.1)"><path d="m314.25 238.77-129.25-223.87a29.79 29.79 0 0 0 -51.6 0l-129.26 223.88a29.79 29.79 0 0 0 25.8 44.68h258.51a29.79 29.79 0 0 0 25.8-44.69zm-4.25 27.31a24.57 24.57 0 0 1 -21.5 12.41h-258.56a24.83 24.83 0 0 1 -21.5-37.23l129.26-223.88a24.82 24.82 0 0 1 43 0l129.3 223.88a24.6 24.6 0 0 1 0 24.82z"/><path d="m310 241.26-129.31-223.88a24.82 24.82 0 0 0 -43 0l-129.25 223.88a24.83 24.83 0 0 0 21.5 37.23h258.51a24.82 24.82 0 0 0 21.55-37.23zm-21.5 24.8h-258.56a12.39 12.39 0 0 1 -10.73-18.58l129.26-223.88a12.39 12.39 0 0 1 21.45 0l129.26 223.88a12.39 12.39 0 0 1 -10.73 18.58z" fill="#fff"/><path d="m169.92 23.6a12.39 12.39 0 0 0 -21.45 0l-129.26 223.88a12.39 12.39 0 0 0 10.73 18.58h258.51a12.39 12.39 0 0 0 10.73-18.58z" fill="#fbad00"/><g fill="#fff"><path d="m102.16 161.48v32.82h12.73a39.91 39.91 0 0 0 10-.8c11-2.68 11.65-12.73 11.65-16.08 0-7-3.08-10.58-4.68-12.06-4.43-3.75-10.59-3.88-16.35-3.88zm-17.82-15.14h31.89c5.22 0 10.72 0 16.21 1.47 9.24 2.55 22.24 10.85 22.24 30 0 12.6-5.9 26.13-22.77 29.88-5.23 1.21-10.19 1.21-16 1.21h-13.8v32h-17.77z"/><path d="m244.9 189.21v51.71h-15.14v-8a35.68 35.68 0 0 1 -25.85 10.45c-29.21 0-44.61-23.32-44.61-48.77 0-29.74 19.69-50.64 45.68-50.64 19.7 0 34.16 12.06 39.92 27.86l-16.9 6.81c-1.74-5.23-6.83-18.76-22.91-18.76-17.81 0-26.52 15.54-26.52 34.17 0 20.76 11.39 32.68 26.79 32.68 9.92 0 21.71-5.22 23.31-22h-23.56v-15.51z"/></g></g></svg>