<svg viewBox="0 0 318.19 283.46" xmlns="http://www.w3.org/2000/svg"><g transform="translate(-.1)"><path d="m314.25 238.77-129.25-223.87a29.79 29.79 0 0 0 -51.6 0l-129.26 223.88a29.79 29.79 0 0 0 25.8 44.68h258.51a29.79 29.79 0 0 0 25.8-44.69zm-4.25 27.31a24.57 24.57 0 0 1 -21.5 12.41h-258.56a24.83 24.83 0 0 1 -21.5-37.23l129.26-223.88a24.82 24.82 0 0 1 43 0l129.3 223.88a24.6 24.6 0 0 1 0 24.82z"/><path d="m310 241.26-129.31-223.88a24.82 24.82 0 0 0 -43 0l-129.25 223.88a24.83 24.83 0 0 0 21.5 37.23h258.51a24.82 24.82 0 0 0 21.55-37.23zm-21.5 24.8h-258.56a12.39 12.39 0 0 1 -10.73-18.58l129.26-223.88a12.39 12.39 0 0 1 21.45 0l129.26 223.88a12.39 12.39 0 0 1 -10.73 18.58z" fill="#fff"/><path d="m169.92 23.6a12.39 12.39 0 0 0 -21.45 0l-129.26 223.88a12.39 12.39 0 0 0 10.73 18.58h258.51a12.39 12.39 0 0 0 10.73-18.58z" fill="#0ac700"/><path d="m199.13 136.57v62.43c-.14 11.23-.14 20.49-10.67 29.47-10.1 8.85-23.16 9.69-29.89 9.69a52.58 52.58 0 0 1 -17.57-2.64c-11.79-4.07-18.11-12.63-20.35-20.07-1.26-4.35-1.26-7.44-1.41-19.79v-59.09h18.53v60.92c0 4.21-.14 8.28 1.27 12.07 3.79 9.54 14.17 10.66 20.07 10.66 3 0 10.38-.13 15.86-4.91s5.47-10.53 5.47-18.81v-59.93z" fill="#fff"/></g></svg>