<svg viewBox="0 0 283.46 283.46" xmlns="http://www.w3.org/2000/svg"><path d="m141.73 0a141.73 141.73 0 1 0 141.73 141.73 141.74 141.74 0 0 0 -141.73-141.73zm0 278.49a136.76 136.76 0 1 1 136.76-136.76 136.76 136.76 0 0 1 -136.76 136.76z"/><path d="m141.73 5a136.76 136.76 0 1 0 136.76 136.73 136.76 136.76 0 0 0 -136.76-136.73zm0 261.09a124.33 124.33 0 1 1 124.33-124.36 124.32 124.32 0 0 1 -124.33 124.33z" fill="#fff"/><circle cx="141.73" cy="141.73" fill="#fb4f93" r="124.33" transform="matrix(.70710678 -.70710678 .70710678 .70710678 -58.71 141.73)"/><g fill="#fff"><path d="m114 90.43v99.48h-18.1v-56.91c0-9.43 0-12.23-8.11-12.23h-16.22v-11.33h1.92c9.29-.15 21.81-.29 25.8-19z"/><path d="m191.23 106.79h-38.77l-3.39 22c4.42-4.42 11.5-7.37 19.16-7.37 17.69 0 30.22 13.11 30.22 33.16 0 20.49-13.41 36.7-37 36.7a41 41 0 0 1 -18.87-4.13c-13.86-7.37-14.89-20.19-15.33-25.05l20.64-1.48c.43 10.17 6.77 14.74 14.29 14.74a15.09 15.09 0 0 0 8.7-2.36c4.42-3 7.51-9.87 7.51-17.68 0-12.39-7.66-18.72-16.5-18.72-6.78 0-12.53 3.09-14.89 9.28l-16.66-1 7.08-54.68h55.28z"/></g></svg>