<svg height="28" width="28" viewBox="0 0 28 28" xmlns="http://www.w3.org/2000/svg"><mask id="rotten-a" fill="#fff"><path d="M0 .057h27.91v27.076H0z" fill-rule="evenodd"/></mask><path d="M25.012 24.579c-5.29.278-6.372-5.777-8.448-5.734-.885.019-1.582.944-1.276 2.022.169.592.636 1.461.93 2 1.038 1.903-.496 4.057-2.292 4.239-2.984.302-4.229-1.429-4.152-3.2.087-1.99 1.773-4.023.043-4.888-1.813-.906-3.286 2.638-5.021 3.43-1.57.716-3.75.16-4.525-1.583-.544-1.225-.446-3.585 1.978-4.485 1.514-.562 4.887.735 5.06-.908.2-1.894-3.544-2.054-4.67-2.508C.643 12.16-.534 10.44.388 8.595c.692-1.383 2.728-1.946 4.282-1.34 1.861.726 2.16 2.657 3.114 3.46.821.692 1.946.778 2.681.302.542-.35.723-1.121.518-1.826-.271-.934-.991-1.518-1.694-2.09-1.25-1.016-3.016-1.89-1.948-4.665C8.217.162 10.785.08 10.785.08a3.343 3.343 0 012.677.858c.996.89 1.19 2.078 1.023 3.346-.152 1.157-.562 2.17-.775 3.317-.248 1.33.463 2.672 1.816 2.724 1.78.07 2.313-1.299 2.531-2.166.319-1.268.737-2.446 1.915-3.188 1.69-1.064 4.036-.831 5.125 1.215.862 1.619.585 3.848-.736 5.065-.593.546-1.306.738-2.077.743-1.105.008-2.21-.019-3.237.499-.698.352-1.003.925-1.003 1.694 0 .75.39 1.24 1.023 1.558 1.19.6 2.505.723 3.791.948 1.865.327 3.505.984 4.558 2.715.01.015.02.03.028.046 1.21 2.05-.055 5-2.432 5.125" fill="#0ac855" fill-rule="evenodd" mask="url(#rotten-a)"/></svg>