<svg height="28" width="28" viewBox="0 0 28 28" xmlns="http://www.w3.org/2000/svg"><mask id="certified-fresh-a" fill="#fff"><path d="M.048.322h26.22v27.63H.049z" fill-rule="evenodd"/></mask><mask id="certified-fresh-b" fill="#fff"><path d="M.048.006h23.575v20.746H.048z" fill-rule="evenodd"/></mask><g fill="none" fill-rule="evenodd"><path d="M15.392 8.057l-.126-.009" fill="#fa3108"/><path d="M15.768 6.58c.765-.067 2.437-.029 3.254.772.048.049.006.16-.064.14-1.196-.322-3.063 1.266-4.272.24-.033.3-.304 1.748-2.37 1.534-.049-.005-.068-.06-.032-.09.32-.272.713-1.025.376-1.506-1.051.698-1.595.728-3.534-.112-.063-.027-.025-.13.05-.147.402-.09 1.36-.438 2.218-.6a2.73 2.73 0 01.48-.052c-.89-.212-1.276-.396-1.862-.393-.064 0-.096-.08-.05-.124.916-.88 2.577-.926 3.377-.27l-.717-1.497.872-.131.43 1.516c.907-.994 2.31-.893 2.783-.025.028.051-.018.112-.076.102-.476-.081-.801.315-.87.642z" fill="#00912d"/><path d="M4.567 20.714c-1.1-1.34-1.813-3.012-1.936-4.977-.212-3.405.951-6.607 5.482-8.218.004.015-.003.032.013.04-.063-.028-.025-.131.05-.148.402-.09 1.36-.439 2.218-.6a2.81 2.81 0 01.48-.053c-.89-.21-1.276-.395-1.862-.392-.064 0-.096-.08-.05-.124.916-.881 2.577-.926 3.377-.27l-.717-1.498.872-.13.43 1.516c.907-.994 2.31-.893 2.783-.025.028.051-.018.112-.076.102-.476-.081-.801.315-.87.642l.007.002c.765-.068 2.437-.03 3.254.771-.057-.054-.125-.098-.19-.146 3.265 1.02 5.53 3.348 5.772 7.223.154 2.474-.654 4.607-2.055 6.261.425.061.849.132 1.273.203a12.48 12.48 0 002.816-7.923C25.638 6.2 20.137.898 13.115.898S.593 6.201.593 12.97c0 2.975 1.031 5.745 2.817 7.928.385-.064.77-.127 1.157-.184" fill="gold" mask="url(#certified-fresh-a)" transform="translate(1)"/><path d="M3.41 20.898A12.476 12.476 0 01.593 12.97C.593 6.2 6.093.898 13.115.898S25.638 6.201 25.638 12.97c0 2.97-1.032 5.739-2.816 7.923.212.035.425.063.638.101 1.722-2.218 2.753-5 2.753-8.024 0-7.235-5.864-12.648-13.098-12.648C5.881.322.017 5.735.017 12.97A13.03 13.03 0 002.775 21c.211-.038.423-.066.635-.102" fill="#fa6e0f" mask="url(#certified-fresh-a)" transform="translate(1)"/><path d="M20.4 26.229c1.431.09 2.626.796 3.346 1.753.024.024.058.024.068-.004a8.794 8.794 0 00.19-3.124c.002-.01.01-.019.025-.022a7.017 7.017 0 012.209-.316c.042.005.041-.037-.004-.08a8.347 8.347 0 00-2.988-1.846 251.042 251.042 0 00-1.141 3.297c-.007.021-.037.034-.067.028z" fill="#0ac855" mask="url(#certified-fresh-a)" transform="translate(1)"/><path d="M23.038 25.915l-1.638.314s.02-.15.085-.563c.845.12 1.553.25 1.553.25" fill="#0b4902"/><path d="M4.577 13.512a59.255 59.255 0 0116.972-.022c1.4-1.654 2.21-3.787 2.055-6.261-.242-3.875-2.507-6.203-5.771-7.223.064.048.132.092.189.146.048.049.006.16-.064.14-1.196-.322-3.063 1.266-4.272.24-.033.3-.304 1.748-2.37 1.534-.049-.005-.068-.06-.032-.09.32-.272.713-1.026.376-1.506-1.051.698-1.595.728-3.534-.112C8.11.351 8.116.334 8.113.32 3.583 1.93 2.419 5.132 2.63 8.537a8.562 8.562 0 001.946 4.975" fill="#fa3200" mask="url(#certified-fresh-b)" transform="translate(1 7.2)"/><path d="M4.23 18.715c-.03.006-.06-.007-.067-.028a247.718 247.718 0 00-1.145-3.3 8.343 8.343 0 00-2.984 1.85c-.044.042-.045.084-.003.079a7.017 7.017 0 012.209.316c.014.003.023.011.024.022a8.794 8.794 0 00.19 3.124c.01.028.045.028.068.004.721-.957 1.914-1.664 3.346-1.753z" fill="#0ac855" mask="url(#certified-fresh-b)" transform="translate(1 7.2)"/><path d="M23.038 25.915a51.756 51.756 0 00-17.808 0c-.03.006-.06-.007-.067-.028-.543-1.602-1.103-3.2-1.68-4.795-.009-.022.016-.048.054-.054a59.188 59.188 0 0121.194 0c.038.006.063.032.054.054a250.49 250.49 0 00-1.68 4.795c-.007.021-.037.034-.067.028" fill="#00912d"/><path d="M5.23 25.915l1.638.314s-.022-.15-.086-.563c-.844.12-1.552.25-1.552.25" fill="#0b4902"/></g></svg>
