<svg height="28" width="28" viewBox="0 0 28 28" xmlns="http://www.w3.org/2000/svg"><mask id="fresh-a" fill="#fff"><path d="M0 .086h26.979V22.3H0z" fill-rule="evenodd"/></mask><g fill="none" fill-rule="evenodd"><path d="M26.955 9.465c-.27-4.329-2.472-7.568-5.784-9.379.018.106-.075.238-.182.191-2.167-.948-5.843 2.12-8.411.513.02.577-.093 3.39-4.055 3.552-.093.004-.145-.091-.086-.16.53-.603 1.065-2.133.296-2.949C7.086 2.71 6.129 3.265 2.97 2.532.949 4.646-.197 7.54.028 11.144c.459 7.36 7.352 11.566 14.293 11.132 6.94-.432 13.093-5.452 12.634-12.811" fill="#fa320a" mask="url(#fresh-a)" transform="translate(0 5.693)"/><path d="M14.305 4.013c1.426-.34 5.529-.033 6.843 1.71.079.105-.032.303-.16.247-2.166-.948-5.842 2.12-8.41.513.02.577-.093 3.389-4.055 3.552-.093.004-.145-.092-.086-.16.53-.603 1.065-2.133.296-2.949-1.794 1.608-2.767 2.125-6.661 1.072-.128-.034-.084-.24.051-.29.736-.282 2.404-1.514 3.981-2.057.3-.104.6-.184.892-.23-1.737-.155-2.52-.397-3.624-.23a.137.137 0 01-.129-.22c1.489-1.917 4.23-2.496 5.923-1.478-1.043-1.292-1.86-2.322-1.86-2.322L9.242.07l1.381 3.087c1.44-2.127 4.119-2.324 5.25-.814.068.09-.002.217-.114.214-.922-.022-1.429.816-1.467 1.453z" fill="#00912d"/></g></svg>
